<svg width="20" height="18" viewBox="0 0 20 18" fill="none" xmlns="http://www.w3.org/2000/svg">
<path fill-rule="evenodd" clip-rule="evenodd" d="M10.0251 10.5829C9.40277 10.5829 8.78231 10.3789 8.26323 9.97089L4.09112 6.63305C3.79065 6.39305 3.74414 5.95643 3.98507 5.6592C4.22787 5.36289 4.66694 5.31582 4.96647 5.55489L9.13487 8.88905C9.65859 9.30074 10.3963 9.30074 10.9237 8.88535L15.0502 5.55674C15.3498 5.31397 15.7888 5.36012 16.0326 5.65735C16.2754 5.95366 16.2298 6.38935 15.9312 6.6312L11.7972 9.96535C11.2744 10.377 10.6493 10.5829 10.0251 10.5829Z" fill="#74778B"/>
<mask id="mask0_0_314" style="mask-type:alpha" maskUnits="userSpaceOnUse" x="0" y="0" width="20" height="18">
<path fill-rule="evenodd" clip-rule="evenodd" d="M0 0H20V18H0V0Z" fill="white"/>
</mask>
<g mask="url(#mask0_0_314)">
<path fill-rule="evenodd" clip-rule="evenodd" d="M5.43168 16.6154H14.5666C14.5685 16.6135 14.5759 16.6154 14.5815 16.6154C15.6429 16.6154 16.5843 16.2388 17.3062 15.5234C18.1443 14.6954 18.6048 13.5055 18.6048 12.1735V5.83385C18.6048 3.25569 16.9062 1.38462 14.5666 1.38462H5.43354C3.094 1.38462 1.39539 3.25569 1.39539 5.83385V12.1735C1.39539 13.5055 1.85678 14.6954 2.694 15.5234C3.41586 16.2388 4.35819 16.6154 5.41866 16.6154H5.43168ZM5.41584 18C3.98048 18 2.69862 17.4831 1.70885 16.5046C0.606515 15.4135 0 13.8757 0 12.1735V5.83385C0 2.508 2.33582 0 5.43351 0H14.5666C17.6643 0 20.0001 2.508 20.0001 5.83385V12.1735C20.0001 13.8757 19.3936 15.4135 18.2912 16.5046C17.3024 17.4822 16.0196 18 14.5815 18H14.5666H5.43351H5.41584Z" fill="#74778B"/>
</g>
</svg>
