<svg width="19" height="17" viewBox="0 0 19 17" fill="none" xmlns="http://www.w3.org/2000/svg">
<path d="M16.8982 2.10216C16.4707 1.6745 15.9632 1.33526 15.4046 1.1038C14.846 0.872344 14.2473 0.753213 13.6426 0.753213C13.038 0.753213 12.4392 0.872344 11.8806 1.1038C11.322 1.33526 10.8145 1.6745 10.3871 2.10216L9.49994 2.98927L8.61282 2.10216C7.74939 1.23873 6.57833 0.753661 5.35726 0.753661C4.13619 0.753661 2.96514 1.23873 2.10171 2.10216C1.23828 2.96558 0.753213 4.13664 0.753213 5.35771C0.753213 6.57878 1.23828 7.74984 2.10171 8.61327L2.98883 9.50038L9.49994 16.0115L16.011 9.50038L16.8982 8.61327C17.3258 8.18581 17.6651 7.67829 17.8965 7.11969C18.128 6.56109 18.2471 5.96236 18.2471 5.35771C18.2471 4.75306 18.128 4.15433 17.8965 3.59573C17.6651 3.03713 17.3258 2.52961 16.8982 2.10216V2.10216Z" stroke="#141416" stroke-width="1.5" stroke-linecap="round" stroke-linejoin="round"/>
</svg>
