<svg width="20" height="20" viewBox="0 0 20 20" fill="none" xmlns="http://www.w3.org/2000/svg">
<path d="M13.2503 12.4274H10.0913L11.6551 9.88003C11.7142 9.7964 11.7555 9.70156 11.7765 9.60136C11.7974 9.50116 11.7976 9.39772 11.7771 9.29744C11.7565 9.19716 11.7155 9.10216 11.6568 9.0183C11.598 8.93444 11.5227 8.86349 11.4354 8.80985C11.3481 8.7562 11.2507 8.72099 11.1493 8.70639C11.0479 8.69179 10.9446 8.69811 10.8457 8.72495C10.7468 8.7518 10.6545 8.7986 10.5744 8.86247C10.4943 8.92635 10.4282 9.00593 10.3801 9.09633L8.11133 12.7871C8.04217 12.9006 8.00447 13.0304 8.00207 13.1632C7.99968 13.296 8.03269 13.4271 8.09772 13.543C8.16275 13.6589 8.25745 13.7554 8.37213 13.8227C8.48681 13.89 8.61734 13.9256 8.75033 13.9259H12.0451L9.59333 18.9001C9.54634 18.9887 9.51763 19.0859 9.50893 19.1858C9.50022 19.2857 9.51167 19.3864 9.54262 19.4818C9.57357 19.5772 9.62338 19.6654 9.6891 19.7412C9.75481 19.817 9.8351 19.8789 9.9252 19.9232C10.0153 19.9674 10.1134 19.9931 10.2136 19.9988C10.3138 20.0045 10.4142 19.99 10.5087 19.9563C10.6032 19.9225 10.69 19.8701 10.7639 19.8022C10.8378 19.7343 10.8973 19.6522 10.9388 19.5609L13.9231 13.5071C13.9792 13.3929 14.0054 13.2663 13.999 13.1392C13.9926 13.0121 13.954 12.8888 13.8867 12.7807C13.8194 12.6727 13.7256 12.5836 13.6143 12.5218C13.503 12.46 13.3777 12.4275 13.2503 12.4274Z" fill="#141416"/>
<path d="M15.9838 5.42936C15.8405 3.94324 15.1481 2.56375 14.0418 1.55994C12.9355 0.556137 11.4945 0 10 0C8.50549 0 7.06455 0.556137 5.95824 1.55994C4.85192 2.56375 4.15957 3.94324 4.01621 5.42936C2.80038 5.6751 1.71905 6.36272 0.981551 7.35913C0.244049 8.35553 -0.0971705 9.58984 0.0239474 10.8231C0.145065 12.0564 0.719906 13.2009 1.63719 14.0352C2.55447 14.8694 3.74896 15.334 4.98941 15.339C5.16656 15.339 5.33646 15.2687 5.46172 15.1435C5.58699 15.0184 5.65736 14.8487 5.65736 14.6717C5.65736 14.4947 5.58699 14.325 5.46172 14.1999C5.33646 14.0747 5.16656 14.0044 4.98941 14.0044C4.04706 13.9934 3.14497 13.6211 2.4697 12.9643C1.79443 12.3076 1.39762 11.4168 1.36134 10.476C1.32505 9.53524 1.65206 8.61653 2.27474 7.90984C2.89743 7.20316 3.76816 6.76256 4.70687 6.67916C4.87622 6.66269 5.03332 6.58364 5.14737 6.45749C5.26141 6.33134 5.32419 6.16719 5.32339 5.99721C5.3201 5.38382 5.43778 4.77579 5.66971 4.20784C5.90164 3.63988 6.24329 3.12313 6.67513 2.68707C7.54729 1.80642 8.73391 1.30795 9.97397 1.30131C11.214 1.29467 12.4059 1.78042 13.2875 2.65168C14.169 3.52295 14.668 4.70837 14.6746 5.94716V6.01389C14.6742 6.18241 14.7375 6.34488 14.852 6.46866C14.9665 6.59243 15.1236 6.66835 15.2918 6.68116C16.2269 6.76914 17.0927 7.21152 17.7113 7.91742C18.33 8.62332 18.6546 9.53911 18.6183 10.4766C18.5821 11.4142 18.1877 12.3022 17.5164 12.9583C16.8451 13.6144 15.9477 13.9888 15.0086 14.0044C14.8315 14.0044 14.6616 14.0747 14.5363 14.1999C14.411 14.325 14.3407 14.4947 14.3407 14.6717C14.3407 14.8487 14.411 15.0184 14.5363 15.1435C14.6616 15.2687 14.8315 15.339 15.0086 15.339C16.2492 15.3344 17.4441 14.8702 18.3617 14.0362C19.2794 13.2021 19.8546 12.0575 19.976 10.8241C20.0973 9.59069 19.7563 8.35615 19.0188 7.35954C18.2813 6.36292 17.1998 5.67514 15.9838 5.42936Z" fill="#141416"/>
</svg>
