<svg width="20" height="18" viewBox="0 0 20 18" fill="none" xmlns="http://www.w3.org/2000/svg">
<path d="M0.613939 16.8174H19.3854" stroke="#1786F9" stroke-width="1.2" stroke-miterlimit="10" stroke-linecap="round" stroke-linejoin="round"/>
<path d="M16.6383 16.826V13.0205" stroke="#1786F9" stroke-width="1.2" stroke-miterlimit="10" stroke-linecap="round" stroke-linejoin="round"/>
<path d="M16.6557 7.33789C15.6147 7.33789 14.7785 8.17408 14.7785 9.21505V11.1519C14.7785 12.1928 15.6147 13.029 16.6557 13.029C17.6966 13.029 18.5328 12.1928 18.5328 11.1519V9.21505C18.5328 8.17408 17.6966 7.33789 16.6557 7.33789Z" stroke="#1786F9" stroke-width="1.2" stroke-miterlimit="10" stroke-linecap="round" stroke-linejoin="round"/>
<path d="M1.55284 16.8175V3.19114C1.55284 1.47611 2.40614 0.614314 4.1041 0.614314H9.41982C11.1178 0.614314 11.9625 1.47611 11.9625 3.19114V16.8175" stroke="#1786F9" stroke-width="1.2" stroke-miterlimit="10" stroke-linecap="round" stroke-linejoin="round"/>
<path d="M4.70953 5.0853H8.93312" stroke="#1786F9" stroke-width="1.2" stroke-miterlimit="10" stroke-linecap="round" stroke-linejoin="round"/>
<path d="M4.70953 8.28498H8.93312" stroke="#1786F9" stroke-width="1.2" stroke-miterlimit="10" stroke-linecap="round" stroke-linejoin="round"/>
<path d="M6.80032 16.8174V13.6178" stroke="#1786F9" stroke-width="1.2" stroke-miterlimit="10" stroke-linecap="round" stroke-linejoin="round"/>
</svg>
