<svg width="18" height="16" viewBox="0 0 18 16" fill="none" xmlns="http://www.w3.org/2000/svg">
<path d="M7.12479 12.9237H0.784444" stroke="white" stroke-width="1.5" stroke-linecap="round" stroke-linejoin="round"/>
<path d="M9.95259 3.17019H16.2929" stroke="white" stroke-width="1.5" stroke-linecap="round" stroke-linejoin="round"/>
<path fill-rule="evenodd" clip-rule="evenodd" d="M5.51073 3.11573C5.51073 1.81192 4.44592 0.754717 3.13272 0.754717C1.81953 0.754717 0.754717 1.81192 0.754717 3.11573C0.754717 4.41953 1.81953 5.47674 3.13272 5.47674C4.44592 5.47674 5.51073 4.41953 5.51073 3.11573Z" stroke="white" stroke-width="1.5" stroke-linecap="round" stroke-linejoin="round"/>
<path fill-rule="evenodd" clip-rule="evenodd" d="M16.8553 12.8843C16.8553 11.5805 15.7913 10.5233 14.4781 10.5233C13.1641 10.5233 12.0993 11.5805 12.0993 12.8843C12.0993 14.1881 13.1641 15.2453 14.4781 15.2453C15.7913 15.2453 16.8553 14.1881 16.8553 12.8843Z" stroke="white" stroke-width="1.5" stroke-linecap="round" stroke-linejoin="round"/>
</svg>
