<svg width="15" height="16" viewBox="0 0 15 16" fill="none" xmlns="http://www.w3.org/2000/svg">
<mask id="mask0_0_232" style="mask-type:alpha" maskUnits="userSpaceOnUse" x="0" y="0" width="15" height="16">
<path fill-rule="evenodd" clip-rule="evenodd" d="M0 0H15V16H0V0Z" fill="white"/>
</mask>
<g mask="url(#mask0_0_232)">
<path fill-rule="evenodd" clip-rule="evenodd" d="M4.04646 11.9222C4.22458 11.9222 4.4027 11.9446 4.57693 11.9909C5.10273 12.1315 5.55931 12.4805 5.82999 12.9492C6.00577 13.2434 6.103 13.587 6.10611 13.9376C6.10611 14.4395 6.51213 14.8418 7.01148 14.8418H7.98608C8.48311 14.8418 8.88912 14.4418 8.89146 13.9484C8.88835 13.4032 9.10302 12.8851 9.49582 12.4951C9.88317 12.1106 10.4245 11.8797 10.9659 11.8952C11.3206 11.9037 11.662 11.9986 11.963 12.1685C12.3963 12.4148 12.9493 12.2681 13.1998 11.8434L13.7162 10.9887C13.8313 10.7918 13.8648 10.5447 13.8033 10.3169C13.7427 10.0891 13.5902 9.89141 13.3849 9.77482C12.9042 9.49993 12.5612 9.05671 12.4188 8.52546C12.2781 8.00425 12.3551 7.43516 12.6296 6.96646C12.8085 6.65759 13.0706 6.39737 13.3849 6.21823C13.8065 5.97346 13.9542 5.42599 13.7092 4.99976C13.6991 4.98277 13.6898 4.96501 13.682 4.94648L13.2262 4.16196C12.9781 3.73341 12.4258 3.58593 11.9926 3.8307C11.5244 4.10559 10.9674 4.18435 10.4323 4.04459C9.89795 3.90715 9.44993 3.57126 9.17069 3.09715C8.9918 2.80064 8.89457 2.45548 8.89146 2.10415C8.89846 1.84007 8.80512 1.60301 8.63556 1.42927C8.46677 1.25631 8.22954 1.15825 7.98608 1.15825H7.01148C6.77036 1.15825 6.5448 1.25168 6.37446 1.42001C6.20489 1.58911 6.11233 1.81381 6.11389 2.05318C6.09755 3.18209 5.16807 4.09092 4.04257 4.09092C3.68167 4.08706 3.33399 3.99054 3.0322 3.8114C2.60829 3.57203 2.05448 3.71951 1.80636 4.14806L1.27978 5.00748C1.03866 5.4229 1.18645 5.97191 1.6158 6.21978C2.25283 6.58578 2.65029 7.26837 2.65029 8.00039C2.65029 8.7324 2.25283 9.41422 1.61424 9.78099C1.18722 10.0265 1.03944 10.5725 1.28678 10.9972L1.77758 11.8373C1.89892 12.0542 2.09726 12.211 2.32672 12.2751C2.5554 12.3384 2.80741 12.3114 3.01742 12.1955C3.32621 12.0156 3.68556 11.9222 4.04646 11.9222ZM7.98605 16H7.01145C5.86884 16 4.93936 15.078 4.93936 13.9437C4.9378 13.804 4.89736 13.6588 4.82191 13.5329C4.69979 13.3214 4.50223 13.17 4.27433 13.1098C4.04799 13.0496 3.79986 13.0828 3.59608 13.2001C3.10761 13.4704 2.53281 13.536 2.00701 13.3893C1.48198 13.2418 1.02852 12.8835 0.762505 12.4087L0.276372 11.577C-0.292209 10.5979 0.0461396 9.34318 1.03085 8.77796C1.31009 8.61812 1.48354 8.32006 1.48354 8.00039C1.48354 7.68071 1.31009 7.38188 1.03085 7.22204C0.0453619 6.65373 -0.292209 5.39588 0.275594 4.41678L0.802951 3.55736C1.36375 2.58906 2.63159 2.24777 3.62019 2.81145C3.75475 2.89098 3.90098 2.93113 4.04954 2.93268C4.53412 2.93268 4.93936 2.53578 4.94714 2.04778C4.94403 1.50958 5.15792 0.993002 5.54761 0.60306C5.93885 0.213889 6.45843 0 7.01145 0H7.98605C8.54296 0 9.08432 0.227016 9.47245 0.621592C9.8598 1.01848 10.0737 1.56286 10.0574 2.11496C10.0589 2.23927 10.1001 2.3829 10.1748 2.50876C10.2985 2.71724 10.4937 2.86395 10.7255 2.92418C10.9573 2.98132 11.2 2.95044 11.4061 2.82921C12.4017 2.26476 13.6687 2.60296 14.2373 3.58361L14.7219 4.41678C14.7344 4.43917 14.7452 4.46079 14.7546 4.48318C15.2695 5.44916 14.9257 6.66532 13.969 7.2205C13.8298 7.30003 13.717 7.41123 13.6392 7.54558C13.5186 7.75329 13.4852 8.00039 13.5459 8.2274C13.6081 8.45905 13.7566 8.65132 13.9659 8.77023C14.438 9.03972 14.7904 9.49375 14.9311 10.018C15.0719 10.5416 14.9949 11.1099 14.7204 11.5786L14.2039 12.4326C13.6353 13.4024 12.3682 13.7383 11.3828 13.1731C11.2513 13.0982 11.0996 13.0573 10.9487 13.0534H10.9441C10.7193 13.0534 10.4883 13.1484 10.3203 13.3144C10.1499 13.4835 10.0566 13.709 10.0581 13.9484C10.0527 15.0827 9.12321 16 7.98605 16Z" fill="#1786F9"/>
</g>
<path fill-rule="evenodd" clip-rule="evenodd" d="M7.50182 6.54338C6.69289 6.54338 6.03486 7.1974 6.03486 8.00045C6.03486 8.8035 6.69289 9.45598 7.50182 9.45598C8.31074 9.45598 8.96877 8.8035 8.96877 8.00045C8.96877 7.1974 8.31074 6.54338 7.50182 6.54338ZM7.50184 10.6142C6.04966 10.6142 4.86816 9.44208 4.86816 8.00045C4.86816 6.55882 6.04966 5.38513 7.50184 5.38513C8.95401 5.38513 10.1355 6.55882 10.1355 8.00045C10.1355 9.44208 8.95401 10.6142 7.50184 10.6142Z" fill="#1786F9"/>
</svg>
