<svg width="64" height="66" viewBox="0 0 64 66" fill="none" xmlns="http://www.w3.org/2000/svg">
<path d="M55.9809 22.405L32.4894 0.939528C31.8104 0.334576 30.9304 0 30.0184 0C29.1063 0 28.2262 0.334576 27.5472 0.939528L3.9227 22.405C3.2314 23.0183 2.81127 23.8776 2.75319 24.7965C2.69512 25.7155 3.00375 26.6201 3.6124 27.3145C4.2531 28.0225 5.13998 28.463 6.09452 28.5474C7.01151 28.5719 7.90195 28.2402 8.57664 27.6228L29.9407 8.27081L51.2826 27.6228C51.6213 27.9593 52.026 28.2232 52.4715 28.3981C52.9169 28.5731 53.3938 28.6554 53.8725 28.6399C54.3513 28.6244 54.8219 28.5115 55.255 28.3082C55.688 28.1049 56.0745 27.8154 56.3905 27.4577C56.7065 27.1001 56.9452 26.6818 57.092 26.2288C57.2387 25.7758 57.2903 25.2977 57.2436 24.8241C57.1969 24.3505 57.053 23.8914 56.8205 23.4753C56.5881 23.0593 56.2722 22.695 55.8923 22.405H55.9809ZM0 48.1856C3.10266 54.35 6.18319 60.1622 9.30801 65.9965C16.1117 60.7787 31.2704 64.4774 42.3735 63.5527C49.5096 59.854 56.3133 55.8691 63.4273 52.1925C64.9786 48.1856 63.4273 46.0501 58.1749 45.7418L43.3266 54.0198C38.3623 53.4034 33.4202 52.5007 28.4559 51.8182C21.0317 42.3074 37.4535 49.9689 42.0854 49.0662C44.8778 47.2169 45.4761 45.0373 42.0854 42.9238C34.6612 41.3607 26.9268 39.8196 19.1923 38.3005C12.9869 41.3607 6.51559 44.7511 0 48.1196V48.1856ZM11.0809 28.2392V40.5241L18.5052 36.8474L19.1257 36.5392H19.436L22.2284 37.1556V26.7201H37.7417V37.4419H23.2257L42.3735 41.4267H43.0163V41.757C47.0497 44.5089 47.0497 47.8774 43.0163 50.3432L42.706 50.6514H42.3735C39.6711 50.6504 36.9783 50.3327 34.3509 49.7047C32.4238 49.1415 30.4516 48.7437 28.4559 48.5158C28.4559 49.1323 29.0986 49.7047 29.3867 50.3432L41.753 52.1925H43.3266L48.8891 49.1323V28.2392L30.0295 11.375L11.0809 28.2392ZM7.66806 2.76684L22.2284 3.36127L8.59882 16.2846L7.66806 2.76684Z" fill="white"/>
</svg>
