<svg width="16" height="20" viewBox="0 0 16 20" fill="none" xmlns="http://www.w3.org/2000/svg">
<mask id="mask0_0_116" style="mask-type:alpha" maskUnits="userSpaceOnUse" x="0" y="12" width="16" height="8">
<path fill-rule="evenodd" clip-rule="evenodd" d="M0 12.5778H16V20H0V12.5778Z" fill="white"/>
</mask>
<g mask="url(#mask0_0_116)">
<path fill-rule="evenodd" clip-rule="evenodd" d="M8.00104 14.0876C3.69697 14.0876 1.51514 14.8244 1.51514 16.2788C1.51514 17.7464 3.69697 18.4902 8.00104 18.4902C12.3041 18.4902 14.4849 17.7534 14.4849 16.2989C14.4849 14.8314 12.3041 14.0876 8.00104 14.0876ZM8.00106 20C6.02226 20 0 20 0 16.2788C0 12.9613 4.5667 12.5778 8.00106 12.5778C9.97986 12.5778 16.0001 12.5778 16.0001 16.2989C16.0001 19.6165 11.4344 20 8.00106 20Z" fill="#74778B"/>
</g>
<mask id="mask1_0_116" style="mask-type:alpha" maskUnits="userSpaceOnUse" x="2" y="0" width="12" height="11">
<path fill-rule="evenodd" clip-rule="evenodd" d="M2.63623 0H13.3636V10.6881H2.63623V0Z" fill="white"/>
</mask>
<g mask="url(#mask1_0_116)">
<path fill-rule="evenodd" clip-rule="evenodd" d="M8.001 1.43698C5.83836 1.43698 4.07876 3.18937 4.07876 5.34438C4.07169 7.49234 5.81816 9.24373 7.97171 9.25178L8.001 9.97045V9.25178C10.1626 9.25178 11.9212 7.49838 11.9212 5.34438C11.9212 3.18937 10.1626 1.43698 8.001 1.43698ZM8.00094 10.6881H7.96862C5.01709 10.679 2.62616 8.28046 2.63626 5.34135C2.63626 2.39722 5.04234 -0.000366211 8.00094 -0.000366211C10.9585 -0.000366211 13.3636 2.39722 13.3636 5.34437C13.3636 8.29153 10.9585 10.6881 8.00094 10.6881Z" fill="#74778B"/>
</g>
</svg>
