<svg width="14" height="9" viewBox="0 0 14 9" fill="none" xmlns="http://www.w3.org/2000/svg">
<path d="M7.03205 8.03604C6.89992 8.03681 6.76894 8.01148 6.64661 7.96152C6.52429 7.91156 6.41303 7.83794 6.31922 7.74489L0.295266 1.72093C0.10621 1.53188 0 1.27546 0 1.0081C0 0.740735 0.10621 0.484321 0.295266 0.295266C0.484321 0.10621 0.740735 0 1.0081 0C1.27546 0 1.53188 0.10621 1.72093 0.295266L7.03205 5.61642L12.3432 0.305306C12.5352 0.140826 12.7823 0.0548772 13.035 0.0646372C13.2877 0.0743971 13.5273 0.179147 13.7062 0.357952C13.885 0.536758 13.9897 0.77645 13.9995 1.02913C14.0092 1.28181 13.9233 1.52887 13.7588 1.72093L7.73485 7.74489C7.54784 7.93037 7.29544 8.03494 7.03205 8.03604Z" fill="#141416"/>
</svg>
