<svg width="20" height="20" viewBox="0 0 20 20" fill="none" xmlns="http://www.w3.org/2000/svg">
<path d="M6.92308 13.0769L13.0769 6.92308" stroke="#1786F9" stroke-width="1.5" stroke-linecap="round" stroke-linejoin="round"/>
<path d="M7.4359 7.94872C7.71912 7.94872 7.94872 7.71912 7.94872 7.4359C7.94872 7.15267 7.71912 6.92308 7.4359 6.92308C7.15267 6.92308 6.92308 7.15267 6.92308 7.4359C6.92308 7.71912 7.15267 7.94872 7.4359 7.94872Z" fill="#1786F9" stroke="#1786F9" stroke-linecap="round" stroke-linejoin="round"/>
<path d="M12.5641 13.0769C12.8473 13.0769 13.0769 12.8473 13.0769 12.5641C13.0769 12.2809 12.8473 12.0513 12.5641 12.0513C12.2809 12.0513 12.0513 12.2809 12.0513 12.5641C12.0513 12.8473 12.2809 13.0769 12.5641 13.0769Z" fill="#1786F9" stroke="#1786F9" stroke-linecap="round" stroke-linejoin="round"/>
<path d="M10 19.2308C15.098 19.2308 19.2308 15.098 19.2308 10C19.2308 4.90199 15.098 0.769231 10 0.769231C4.90199 0.769231 0.769231 4.90199 0.769231 10C0.769231 15.098 4.90199 19.2308 10 19.2308Z" stroke="#1786F9" stroke-width="1.5" stroke-linecap="round" stroke-linejoin="round"/>
</svg>
