<svg width="20" height="18" viewBox="0 0 20 18" fill="none" xmlns="http://www.w3.org/2000/svg">
<path d="M2.82051 3.84615H3.84615C4.39019 3.84615 4.91194 3.63004 5.29663 3.24535C5.68132 2.86066 5.89744 2.33891 5.89744 1.79487C5.89744 1.52285 6.00549 1.26198 6.19784 1.06963C6.39018 0.877289 6.65106 0.769231 6.92308 0.769231H13.0769C13.3489 0.769231 13.6098 0.877289 13.8022 1.06963C13.9945 1.26198 14.1026 1.52285 14.1026 1.79487C14.1026 2.33891 14.3187 2.86066 14.7034 3.24535C15.0881 3.63004 15.6098 3.84615 16.1538 3.84615H17.1795C17.7235 3.84615 18.2453 4.06227 18.63 4.44696C19.0147 4.83165 19.2308 5.3534 19.2308 5.89744V15.1282C19.2308 15.6722 19.0147 16.194 18.63 16.5787C18.2453 16.9634 17.7235 17.1795 17.1795 17.1795H2.82051C2.27648 17.1795 1.75473 16.9634 1.37004 16.5787C0.985347 16.194 0.769231 15.6722 0.769231 15.1282V5.89744C0.769231 5.3534 0.985347 4.83165 1.37004 4.44696C1.75473 4.06227 2.27648 3.84615 2.82051 3.84615Z" fill="#74778B"/>
<path d="M2.82051 3.84615H3.84615C4.39019 3.84615 4.91194 3.63004 5.29663 3.24535C5.68132 2.86066 5.89744 2.33891 5.89744 1.79487C5.89744 1.52285 6.00549 1.26198 6.19784 1.06963C6.39018 0.877289 6.65106 0.769231 6.92308 0.769231H13.0769C13.3489 0.769231 13.6098 0.877289 13.8022 1.06963C13.9945 1.26198 14.1026 1.52285 14.1026 1.79487C14.1026 2.33891 14.3187 2.86066 14.7034 3.24535C15.0881 3.63004 15.6098 3.84615 16.1538 3.84615H17.1795C17.7235 3.84615 18.2453 4.06227 18.63 4.44696C19.0147 4.83165 19.2308 5.3534 19.2308 5.89744V15.1282C19.2308 15.6722 19.0147 16.194 18.63 16.5787C18.2453 16.9634 17.7235 17.1795 17.1795 17.1795H2.82051C2.27648 17.1795 1.75473 16.9634 1.37004 16.5787C0.985347 16.194 0.769231 15.6722 0.769231 15.1282V5.89744C0.769231 5.3534 0.985347 4.83165 1.37004 4.44696C1.75473 4.06227 2.27648 3.84615 2.82051 3.84615" stroke="#74778B" stroke-width="1.5" stroke-linecap="round" stroke-linejoin="round"/>
<path d="M10 13.0769C11.6993 13.0769 13.0769 11.6993 13.0769 10C13.0769 8.30066 11.6993 6.92308 10 6.92308C8.30066 6.92308 6.92308 8.30066 6.92308 10C6.92308 11.6993 8.30066 13.0769 10 13.0769Z" stroke="#D8DAE2" stroke-width="1.5" stroke-linecap="round" stroke-linejoin="round"/>
</svg>
