<svg width="19" height="19" viewBox="0 0 19 19" fill="none" xmlns="http://www.w3.org/2000/svg">
<path d="M11.6111 18.1556H6.54444C1.95911 18.1556 0 16.1964 0 11.6111V6.54444C0 1.95911 1.95911 0 6.54444 0H11.6111C16.1964 0 18.1556 1.95911 18.1556 6.54444V11.6111C18.1556 11.8138 18.1556 12.0249 18.1387 12.2191C18.1133 12.4724 17.936 12.692 17.6911 12.768C17.4462 12.844 17.176 12.7596 17.0156 12.5569C16.416 11.8222 15.5293 11.4 14.5667 11.4C13.8489 11.4 13.148 11.6449 12.5907 12.0925C11.8307 12.692 11.4 13.5871 11.4 14.5667C11.4 15.5209 11.8222 16.416 12.5569 17.0156C12.7596 17.176 12.8356 17.4462 12.768 17.6911C12.692 17.936 12.4809 18.1133 12.2191 18.1387C12.0249 18.1555 11.8138 18.1556 11.6111 18.1556ZM6.54444 1.26667C2.65156 1.26667 1.26667 2.65156 1.26667 6.54444V11.6111C1.26667 15.504 2.65156 16.8889 6.54444 16.8889H10.7835C10.3613 16.2049 10.1333 15.4027 10.1333 14.5667C10.1333 13.1987 10.7413 11.9405 11.8053 11.1045C13.224 9.95602 15.3773 9.85468 16.8889 10.7836V6.54444C16.8889 2.65156 15.504 1.26667 11.6111 1.26667H6.54444Z" fill="#1786F9"/>
<path d="M17.0824 5.58178H1.07172C0.725497 5.58178 0.438385 5.29466 0.438385 4.94844C0.438385 4.60222 0.725497 4.31511 1.07172 4.31511H17.0824C17.4286 4.31511 17.7157 4.60222 17.7157 4.94844C17.7157 5.29466 17.4371 5.58178 17.0824 5.58178Z" fill="#1786F9"/>
<path d="M6.13839 5.46355C5.79216 5.46355 5.50505 5.17644 5.50505 4.83022V0.72623C5.50505 0.380008 5.79216 0.0928971 6.13839 0.0928971C6.48461 0.0928971 6.77172 0.380008 6.77172 0.72623V4.83022C6.77172 5.17644 6.48461 5.46355 6.13839 5.46355Z" fill="#1786F9"/>
<path d="M12.0165 5.08359C11.6703 5.08359 11.3832 4.79648 11.3832 4.45026V0.72623C11.3832 0.380008 11.6703 0.0928971 12.0165 0.0928971C12.3627 0.0928971 12.6498 0.380008 12.6498 0.72623V4.45026C12.6498 4.80493 12.3712 5.08359 12.0165 5.08359Z" fill="#1786F9"/>
<path d="M14.5667 19C13.5364 19 12.54 18.6453 11.7547 17.9951C10.7245 17.1591 10.1333 15.9093 10.1333 14.5667C10.1333 13.1987 10.7413 11.9405 11.8053 11.1045C12.5822 10.4796 13.5618 10.1333 14.5667 10.1333C15.9093 10.1333 17.1591 10.7244 17.9951 11.7631C18.6369 12.54 19 13.5364 19 14.5667C19 15.8249 18.4511 17.0409 17.4969 17.8938C16.6693 18.6116 15.6307 19 14.5667 19ZM14.5667 11.4C13.8489 11.4 13.148 11.6449 12.5907 12.0925C11.8307 12.692 11.4 13.5871 11.4 14.5667C11.4 15.5209 11.8222 16.416 12.5569 17.0156C13.7053 17.9698 15.4871 17.9613 16.6609 16.9396C17.3365 16.3316 17.7333 15.4618 17.7333 14.5667C17.7333 13.832 17.48 13.1227 17.0155 12.5653C16.416 11.8222 15.5209 11.4 14.5667 11.4Z" fill="#1786F9"/>
<path d="M13.6202 16.1542C13.4091 16.1542 13.198 16.0445 13.0797 15.8503C12.9024 15.5463 12.9953 15.1578 13.2993 14.9805L14.1775 14.4569V13.3929C14.1775 13.0467 14.4647 12.7596 14.8109 12.7596C15.1571 12.7596 15.4442 13.0467 15.4442 13.3929V14.82C15.4442 15.0396 15.326 15.2507 15.1402 15.3605L13.9495 16.0698C13.8397 16.1205 13.73 16.1542 13.6202 16.1542Z" fill="#1786F9"/>
</svg>
