<svg width="12" height="12" viewBox="0 0 12 12" fill="none" xmlns="http://www.w3.org/2000/svg">
<path d="M5.99999 0C2.694 0 0 2.694 0 5.99999C0 9.30598 2.694 12 5.99999 12C9.30598 12 12 9.30598 12 5.99999C12 2.694 9.30598 0 5.99999 0ZM8.86799 4.61999L5.46599 8.02199C5.38199 8.10599 5.26799 8.15399 5.14799 8.15399C5.02799 8.15399 4.91399 8.10599 4.82999 8.02199L3.13199 6.32399C2.958 6.14999 2.958 5.86199 3.13199 5.68799C3.30599 5.51399 3.59399 5.51399 3.76799 5.68799L5.14799 7.06799L8.23199 3.98399C8.40599 3.80999 8.69399 3.80999 8.86799 3.98399C9.04199 4.15799 9.04199 4.43999 8.86799 4.61999Z" fill="#48BC65"/>
</svg>
