<svg width="20" height="20" viewBox="0 0 20 20" fill="none" xmlns="http://www.w3.org/2000/svg">
<path d="M17.2179 18.1907C16.6173 18.4909 16.0992 18.7497 14.9956 18.7497C13.8915 18.7497 13.3733 18.4903 12.7728 18.1907C12.1246 17.8665 11.3897 17.4998 9.9914 17.4998C8.59491 17.4998 7.86067 17.8672 7.21371 18.1907C6.61437 18.4909 6.09676 18.7497 4.99511 18.7497C3.89405 18.7497 3.37649 18.4909 2.7771 18.1907C2.13014 17.8672 1.39649 17.4998 0 17.4998V18.7497C1.10106 18.7497 1.61862 19.0085 2.21801 19.3088C2.86497 19.6323 3.59862 19.9997 4.99511 19.9997C6.3916 19.9997 7.12584 19.6323 7.7728 19.3088C8.37215 19.0085 8.88975 18.7497 9.9914 18.7497C11.0949 18.7497 11.6131 19.0085 12.2137 19.3088C12.8619 19.6329 13.5967 19.9997 14.9956 19.9997C16.3939 19.9997 17.1288 19.6329 17.777 19.3088C18.3776 19.0091 18.8958 18.7497 19.9999 18.7497V17.4998C18.601 17.4998 17.8661 17.8666 17.2179 18.1907Z" fill="#141416"/>
<path d="M0.625072 11.2499H2.50004V16.8081C2.59244 16.8526 2.68931 16.8969 2.77714 16.9408C3.09048 17.0979 3.38633 17.2409 3.75003 17.3441V10.6249C3.75003 10.2794 3.47048 9.99989 3.12503 9.99989H2.06795L10 1.53865L17.9321 9.99989H16.875C16.5295 9.99989 16.25 10.2794 16.25 10.6249V17.3426C16.6115 17.2394 16.9057 17.0968 17.218 16.9407C17.3073 16.896 17.4058 16.8511 17.5 16.8058V11.2499H19.375C19.624 11.2499 19.8492 11.1022 19.9487 10.8733C20.0476 10.6451 20.0012 10.379 19.8309 10.1977L17.5 7.71137V1.24998H13.75V3.71137L10.4559 0.197755C10.3373 0.0711854 10.1681 -0.000210764 9.999 4.67378e-07C9.83057 0.000211699 9.66226 0.0716501 9.54405 0.197755L0.16915 10.1977C-0.00114417 10.379 -0.0475305 10.6451 0.0513679 10.8733C0.150816 11.1022 0.376072 11.2499 0.625072 11.2499ZM15 2.49996H16.25V6.37804L15 5.04475V2.49996Z" fill="#141416"/>
</svg>
