<svg width="17" height="17" viewBox="0 0 17 17" fill="none" xmlns="http://www.w3.org/2000/svg">
<path fill-rule="evenodd" clip-rule="evenodd" d="M3.70512 1.30769C1.30768 1.30769 1.30768 1.48903 1.30768 3.70513V3.72692C1.30768 4.692 1.30768 5.38943 1.54394 5.6841C1.77497 5.97005 2.46107 6.10256 3.70512 6.10256C4.94917 6.10256 5.63527 5.96918 5.8663 5.68323C6.10255 5.38943 6.10255 4.692 6.10255 3.72605C6.10255 1.48903 6.10255 1.30769 3.70512 1.30769ZM3.70513 7.41025C2.23528 7.41025 1.13246 7.25595 0.526564 6.50359C0 5.85061 0 4.95964 0 3.72692L0.653846 3.70513H0C0 1.20308 0.157795 0 3.70513 0C7.25246 0 7.41025 1.20308 7.41025 3.70513C7.41025 4.95877 7.41025 5.85061 6.88369 6.50359C6.27779 7.25595 5.17497 7.41025 3.70513 7.41025Z" fill="#141416"/>
<path fill-rule="evenodd" clip-rule="evenodd" d="M13.2948 1.30769C10.8974 1.30769 10.8974 1.48903 10.8974 3.70513V3.72692C10.8974 4.692 10.8974 5.38943 11.1336 5.6841C11.3646 5.97005 12.0507 6.10256 13.2948 6.10256C14.5388 6.10256 15.2249 5.96918 15.456 5.68323C15.6922 5.38943 15.6922 4.692 15.6922 3.72605C15.6922 1.48903 15.6922 1.30769 13.2948 1.30769ZM13.2948 7.41025C11.8249 7.41025 10.7221 7.25595 10.1162 6.50359C9.58964 5.85061 9.58964 4.95964 9.58964 3.72692L10.2435 3.70513H9.58964C9.58964 1.20308 9.74744 0 13.2948 0C16.8421 0 16.9999 1.20308 16.9999 3.70513C16.9999 4.95877 16.9999 5.85061 16.4733 6.50359C15.8674 7.25595 14.7646 7.41025 13.2948 7.41025Z" fill="#141416"/>
<path fill-rule="evenodd" clip-rule="evenodd" d="M3.70512 10.8974C1.30768 10.8974 1.30768 11.0788 1.30768 13.2949V13.3167C1.30768 14.2817 1.30768 14.9792 1.54394 15.2738C1.77497 15.5598 2.46107 15.6923 3.70512 15.6923C4.94917 15.6923 5.63527 15.5589 5.8663 15.273C6.10255 14.9792 6.10255 14.2817 6.10255 13.3158C6.10255 11.0788 6.10255 10.8974 3.70512 10.8974ZM3.70513 17C2.23528 17 1.13246 16.8457 0.526564 16.0933C0 15.4404 0 14.5494 0 13.3167L0.653846 13.2949H0C0 10.7928 0.157795 9.58974 3.70513 9.58974C7.25246 9.58974 7.41025 10.7928 7.41025 13.2949C7.41025 14.5485 7.41025 15.4404 6.88369 16.0933C6.27779 16.8457 5.17497 17 3.70513 17Z" fill="#141416"/>
<path fill-rule="evenodd" clip-rule="evenodd" d="M13.2948 10.8974C10.8973 10.8974 10.8973 11.0788 10.8973 13.2949V13.3167C10.8973 14.2817 10.8973 14.9792 11.1336 15.2738C11.3646 15.5598 12.0507 15.6923 13.2948 15.6923C14.5388 15.6923 15.2249 15.5589 15.456 15.273C15.6922 14.9792 15.6922 14.2817 15.6922 13.3158C15.6922 11.0788 15.6922 10.8974 13.2948 10.8974ZM13.2948 17C11.8249 17 10.7221 16.8457 10.1162 16.0933C9.58964 15.4404 9.58964 14.5494 9.58964 13.3167L10.2435 13.2949H9.58964C9.58964 10.7928 9.74744 9.58974 13.2948 9.58974C16.8421 9.58974 16.9999 10.7928 16.9999 13.2949C16.9999 14.5485 16.9999 15.4404 16.4733 16.0933C15.8674 16.8457 14.7646 17 13.2948 17Z" fill="#141416"/>
</svg>
