<svg width="17" height="17" viewBox="0 0 17 17" fill="none" xmlns="http://www.w3.org/2000/svg">
<path d="M16.8565 1.64731C15.7431 4.42662 13.2017 8.05588 10.7794 10.4272C10.4309 8.23436 8.68004 6.51748 6.47019 6.2115C8.85003 3.78066 12.5048 1.20534 15.2926 0.0834103C15.7856 -0.103577 16.2785 0.0409133 16.5845 0.346893C16.9075 0.669871 17.0605 1.15434 16.8565 1.64731Z" fill="#74778B"/>
<path d="M10.0315 11.1242C9.86153 11.2687 9.69154 11.4132 9.52155 11.5492L8.00015 12.7646C8.00015 12.7391 7.99165 12.7051 7.99165 12.6711C7.87266 11.7617 7.44769 10.9202 6.75924 10.2318C6.06228 9.53481 5.19534 9.10984 4.24341 8.99085C4.21791 8.99085 4.18391 8.98235 4.15841 8.98235L5.39083 7.42695C5.50982 7.27396 5.63731 7.12947 5.7733 6.97648L6.35126 7.05298C8.17864 7.30796 9.64904 8.74436 9.93802 10.5632L10.0315 11.1242Z" fill="#74778B"/>
<path d="M7.18474 13.2745C7.18474 14.2095 6.82776 15.1019 6.14781 15.7734C5.62934 16.3003 4.93239 16.6573 4.08245 16.7593L2.00009 16.9888C0.861164 17.1163 -0.11627 16.1388 0.0112211 14.9914L0.240706 12.9006C0.444692 11.0392 2.00009 9.84926 3.64898 9.81526C3.81047 9.80676 3.98895 9.81526 4.15894 9.83226C4.88139 9.92575 5.57835 10.2572 6.16481 10.8352C6.73427 11.4047 7.05725 12.0761 7.15074 12.7816C7.16774 12.9515 7.18474 13.113 7.18474 13.2745Z" fill="#74778B"/>
</svg>
