<svg width="14" height="14" viewBox="0 0 14 14" fill="none" xmlns="http://www.w3.org/2000/svg">
<path opacity="0.2" d="M6.99991 13.9998C10.8659 13.9998 13.9998 10.8659 13.9998 6.99991C13.9998 3.13397 10.8659 0 6.99991 0C3.13397 0 0 3.13397 0 6.99991C0 10.8659 3.13397 13.9998 6.99991 13.9998Z" fill="#1786F9"/>
<path d="M6.99974 8.2249C7.28674 8.2249 7.52474 7.9869 7.52474 7.69991V4.19995C7.52474 3.91295 7.28674 3.67496 6.99974 3.67496C6.71275 3.67496 6.47475 3.91295 6.47475 4.19995V7.69991C6.47475 7.9869 6.71275 8.2249 6.99974 8.2249Z" fill="#1786F9"/>
<path d="M7.64391 9.53387C7.60891 9.44987 7.55991 9.37287 7.49691 9.30287C7.42691 9.23987 7.34991 9.19087 7.26591 9.15587C7.09791 9.08587 6.90192 9.08587 6.73392 9.15587C6.64992 9.19087 6.57292 9.23987 6.50292 9.30287C6.43992 9.37287 6.39092 9.44987 6.35592 9.53387C6.32092 9.61786 6.29992 9.70886 6.29992 9.79986C6.29992 9.89086 6.32092 9.98186 6.35592 10.0659C6.39092 10.1569 6.43992 10.2269 6.50292 10.2969C6.57292 10.3599 6.64992 10.4089 6.73392 10.4439C6.81792 10.4789 6.90892 10.4999 6.99991 10.4999C7.09091 10.4999 7.18191 10.4789 7.26591 10.4439C7.34991 10.4089 7.42691 10.3599 7.49691 10.2969C7.55991 10.2269 7.60891 10.1569 7.64391 10.0659C7.67891 9.98186 7.69991 9.89086 7.69991 9.79986C7.69991 9.70886 7.67891 9.61786 7.64391 9.53387Z" fill="#1786F9"/>
</svg>
