<svg width="17" height="20" viewBox="0 0 17 20" fill="none" xmlns="http://www.w3.org/2000/svg">
<path fill-rule="evenodd" clip-rule="evenodd" d="M8.50096 6.6667C7.50669 6.6667 6.69788 7.47183 6.69788 8.46259C6.69788 9.45234 7.50669 10.2564 8.50096 10.2564C9.49523 10.2564 10.304 9.45234 10.304 8.46259C10.304 7.47183 9.49523 6.6667 8.50096 6.6667ZM8.50093 11.7949C6.65457 11.7949 5.15234 10.3005 5.15234 8.46259C5.15234 6.62362 6.65457 5.12823 8.50093 5.12823C10.3473 5.12823 11.8495 6.62362 11.8495 8.46259C11.8495 10.3005 10.3473 11.7949 8.50093 11.7949Z" fill="#74778B"/>
<mask id="mask0_0_261" style="mask-type:alpha" maskUnits="userSpaceOnUse" x="0" y="0" width="17" height="20">
<path fill-rule="evenodd" clip-rule="evenodd" d="M0 0H17V20H0V0Z" fill="white"/>
</mask>
<g mask="url(#mask0_0_261)">
<path fill-rule="evenodd" clip-rule="evenodd" d="M8.49925 1.53846C4.66435 1.53846 1.54449 4.67385 1.54449 8.52615C1.54449 13.4277 7.33909 18.2031 8.49925 18.4574C9.65941 18.2021 15.454 13.4267 15.454 8.52615C15.454 4.67385 12.3342 1.53846 8.49925 1.53846ZM8.49928 20C6.65086 20 -0.000976562 14.3056 -0.000976562 8.52615C-0.000976562 3.82462 3.81229 0 8.49928 0C13.1863 0 16.9995 3.82462 16.9995 8.52615C16.9995 14.3056 10.3477 20 8.49928 20Z" fill="#74778B"/>
</g>
</svg>
