<svg width="22" height="16" viewBox="0 0 22 16" fill="none" xmlns="http://www.w3.org/2000/svg">
<path d="M18.0455 8.60332C17.8836 8.60332 17.7218 8.55272 17.5801 8.44142C13.5023 5.29454 8.23053 5.29454 4.15274 8.44142C3.81883 8.69438 3.34325 8.63366 3.09029 8.30987C2.83732 7.97596 2.89804 7.5004 3.22183 7.24743C7.86626 3.65534 13.8666 3.65534 18.5009 7.24743C18.8348 7.5004 18.8955 7.97596 18.6324 8.30987C18.5009 8.50212 18.2783 8.60332 18.0455 8.60332Z" fill="#141416"/>
<path d="M20.9906 5.08205C20.8287 5.08205 20.6668 5.03149 20.5252 4.92018C14.6564 0.387059 7.07761 0.387059 1.21895 4.92018C0.885037 5.17315 0.409461 5.11243 0.156497 4.78864C-0.0964677 4.45472 -0.0357667 3.97913 0.288028 3.72617C6.71332 -1.24206 15.0207 -1.24206 21.4561 3.72617C21.79 3.97913 21.8507 4.45472 21.5876 4.78864C21.446 4.98089 21.2133 5.08205 20.9906 5.08205Z" fill="#141416"/>
<path d="M16.1429 12.2967C15.981 12.2967 15.8191 12.2461 15.6774 12.1348C12.7633 9.87838 8.98906 9.87838 6.06479 12.1348C5.73088 12.3878 5.25531 12.3271 5.00234 12.0033C4.74938 11.6694 4.81009 11.1938 5.13389 10.9408C8.61468 8.2493 13.1174 8.2493 16.5982 10.9408C16.9322 11.1938 16.9929 11.6694 16.7298 12.0033C16.5881 12.1956 16.3655 12.2967 16.1429 12.2967Z" fill="#141416"/>
<path d="M13.5025 16.0001C13.3406 16.0001 13.1787 15.9495 13.0371 15.8382C11.7217 14.8162 10.0116 14.8162 8.69622 15.8382C8.36231 16.0911 7.88673 16.0304 7.63377 15.7066C7.38081 15.3727 7.44151 14.8972 7.7653 14.6442C9.64736 13.1871 12.0758 13.1871 13.9579 14.6442C14.2918 14.8972 14.3525 15.3727 14.0894 15.7066C13.9579 15.8888 13.7353 16.0001 13.5025 16.0001Z" fill="#141416"/>
</svg>
