<svg width="18" height="18" viewBox="0 0 18 18" fill="none" xmlns="http://www.w3.org/2000/svg">
<path d="M16.1555 5.61103L10.6748 1.34811C10.1938 0.973932 9.60179 0.770778 8.99241 0.770778C8.38303 0.770778 7.79103 0.973932 7.31006 1.34811L1.82829 5.61103C1.49885 5.86722 1.23231 6.1953 1.04903 6.57023C0.865756 6.94516 0.770581 7.35702 0.770778 7.77434V15.1738C0.770778 15.7189 0.98733 16.2417 1.37279 16.6272C1.75826 17.0127 2.28106 17.2292 2.82619 17.2292H15.1586C15.7038 17.2292 16.2266 17.0127 16.612 16.6272C16.9975 16.2417 17.214 15.7189 17.214 15.1738V7.77434C17.214 6.92854 16.8235 6.13002 16.1555 5.61103Z" stroke="#1786F9" stroke-width="1.5" stroke-linecap="round" stroke-linejoin="round"/>
<path d="M13.0724 12.0753C10.8011 13.4452 7.1199 13.4452 4.85073 12.0753" stroke="#1786F9" stroke-width="1.5" stroke-linecap="round" stroke-linejoin="round"/>
</svg>
