<svg width="17" height="17" viewBox="0 0 17 17" fill="none" xmlns="http://www.w3.org/2000/svg">
<path fill-rule="evenodd" clip-rule="evenodd" d="M8.4995 13.285C8.14761 13.285 7.86201 12.9956 7.86201 12.6391V10.4543C7.86201 10.0978 8.14761 9.80841 8.4995 9.80841C8.8514 9.80841 9.13699 10.0978 9.13699 10.4543V12.6391C9.13699 12.9956 8.8514 13.285 8.4995 13.285Z" fill="#1786F9"/>
<mask id="mask0_4155_9126" style="mask-type:alpha" maskUnits="userSpaceOnUse" x="0" y="2" width="17" height="10">
<path fill-rule="evenodd" clip-rule="evenodd" d="M0 2.22168H16.9997V11.1013H0V2.22168Z" fill="white"/>
</mask>
<g mask="url(#mask0_4155_9126)">
<path fill-rule="evenodd" clip-rule="evenodd" d="M1.27498 8.0889C3.29557 9.20069 5.84342 9.80954 8.49502 9.80954C11.1517 9.80954 13.7021 9.20069 15.7236 8.0889V5.50365C15.7236 4.40564 14.8468 3.51346 13.7676 3.51346H3.23944C2.15601 3.51346 1.27498 4.4022 1.27498 5.49503V8.0889ZM8.49567 11.1013C5.48094 11.1013 2.57506 10.3624 0.315505 9.02241C0.119909 8.90701 0 8.69516 0 8.46523V5.49502C0 3.68999 1.45336 2.22168 3.24009 2.22168H13.7683C15.5507 2.22168 16.9998 3.69344 16.9998 5.50363V8.46523C16.9998 8.69516 16.8791 8.90701 16.6843 9.02241C14.4248 10.3624 11.5163 11.1013 8.49567 11.1013Z" fill="#1786F9"/>
</g>
<mask id="mask1_4155_9126" style="mask-type:alpha" maskUnits="userSpaceOnUse" x="4" y="0" width="9" height="4">
<path fill-rule="evenodd" clip-rule="evenodd" d="M4.88574 0H12.1143V3.51008H4.88574V0Z" fill="white"/>
</mask>
<g mask="url(#mask1_4155_9126)">
<path fill-rule="evenodd" clip-rule="evenodd" d="M11.4765 3.5101C11.1244 3.5101 10.8387 3.22075 10.8387 2.86422V2.54903C10.8387 1.85578 10.2816 1.29171 9.59706 1.29171H7.40298C6.71839 1.29171 6.16137 1.85578 6.16137 2.54903V2.86422C6.16137 3.22075 5.87563 3.5101 5.52356 3.5101C5.17148 3.5101 4.88574 3.22075 4.88574 2.86422V2.54903C4.88574 1.14358 6.0151 -6.22546e-05 7.40298 -6.22546e-05H9.59706C10.9849 -6.22546e-05 12.1143 1.14358 12.1143 2.54903V2.86422C12.1143 3.22075 11.8285 3.5101 11.4765 3.5101Z" fill="#1786F9"/>
</g>
<path fill-rule="evenodd" clip-rule="evenodd" d="M13.432 16.9997H3.56713C1.80251 16.9997 0.316833 15.6037 0.183318 13.8211L0.0217384 11.6604C-0.0046245 11.3047 0.259005 10.9938 0.610227 10.9671C0.96315 10.9542 1.2676 11.2065 1.29481 11.5631L1.45554 13.7229C1.53888 14.8355 2.46584 15.7079 3.56713 15.7079H13.432C14.5333 15.7079 15.4611 14.8355 15.5436 13.7229L15.7051 11.5631C15.7323 11.2065 16.0444 10.9533 16.3897 10.9671C16.7409 10.9938 17.0037 11.3047 16.9774 11.6604L16.8158 13.8211C16.6823 15.6037 15.1966 16.9997 13.432 16.9997Z" fill="#1786F9"/>
</svg>
