<svg width="21" height="22" viewBox="0 0 21 22" fill="none" xmlns="http://www.w3.org/2000/svg">
<path d="M12.094 18.5829C11.5416 18.5829 10.9586 18.5318 10.3244 18.4295L5.52682 17.6725C4.01288 17.4372 2.84674 17.0178 1.97726 16.4041C-0.262958 14.8492 -0.129977 12.1794 0.156443 10.3074L0.91341 5.50989C1.609 1.1113 3.8799 -0.535616 8.27849 0.149746L13.076 0.906713C15.3367 1.26474 18.3748 2.17514 18.5692 5.99067C18.6101 6.64534 18.5692 7.39208 18.4259 8.2718L17.6792 13.0693C17.0859 16.8235 15.3367 18.5829 12.094 18.5829ZM6.44745 1.5307C4.01288 1.5307 2.90812 2.76844 2.42734 5.75539L1.67038 10.5529C1.19983 13.5706 2.05909 14.5935 2.85697 15.1561C3.53211 15.6369 4.48343 15.9642 5.76209 16.1586L10.5596 16.9155C14.1296 17.4782 15.6027 16.4041 16.1653 12.8238L16.912 8.02629C17.0348 7.2591 17.0757 6.61465 17.0348 6.0725V6.06227C16.9222 3.91412 15.705 2.86051 12.8305 2.41042L8.04322 1.66368C7.44992 1.57162 6.92823 1.5307 6.44745 1.5307Z" fill="#141416"/>
<path d="M13.7612 21.9892C12.8917 21.9892 11.9097 21.805 10.7742 21.4266L6.1608 19.8922C3.53188 19.0227 2.11001 17.7747 1.68038 15.9539C1.60877 15.647 1.73152 15.3197 1.99749 15.1458C2.26345 14.9719 2.61124 14.9719 2.86698 15.156C3.54211 15.6368 4.4832 15.9641 5.76186 16.1585L10.5594 16.9154C14.1294 17.478 15.6024 16.404 16.165 12.8237L16.9118 8.02619C17.0345 7.25899 17.0754 6.61455 17.0345 6.0724C17.0243 5.80644 17.1573 5.54047 17.3926 5.38704C17.6278 5.2336 17.9245 5.22337 18.17 5.35635C20.9114 6.81913 21.6377 9.16164 20.4511 12.7419L18.9167 17.3553C18.1904 19.5239 17.2391 20.8537 15.9093 21.5186C15.2649 21.8357 14.559 21.9892 13.7612 21.9892ZM4.60595 17.4985C5.09696 17.8258 5.75163 18.143 6.64158 18.4396L11.255 19.974C13.0144 20.5571 14.2726 20.6082 15.2137 20.1479C16.1548 19.6773 16.8709 18.634 17.4539 16.8745L18.9883 12.2611C19.8271 9.72425 19.4998 8.37399 18.528 7.46358C18.5075 7.71931 18.4666 7.98527 18.4257 8.27169L17.679 13.0692C16.9834 17.4678 14.7125 19.1147 10.3139 18.4396L5.51636 17.6826C5.19925 17.6213 4.89237 17.5599 4.60595 17.4985Z" fill="#141416"/>
<path d="M7.17324 8.66045C5.77183 8.66045 4.62615 7.51477 4.62615 6.11336C4.62615 4.71194 5.77183 3.56626 7.17324 3.56626C8.57466 3.56626 9.72034 4.71194 9.72034 6.11336C9.72034 7.51477 8.57466 8.66045 7.17324 8.66045ZM7.17324 5.11089C6.62086 5.11089 6.16055 5.56097 6.16055 6.12358C6.16055 6.6862 6.61063 7.13628 7.17324 7.13628C7.72563 7.13628 8.18594 6.6862 8.18594 6.12358C8.18594 5.56097 7.72563 5.11089 7.17324 5.11089Z" fill="#141416"/>
</svg>
