<svg width="13" height="13" viewBox="0 0 13 13" fill="none" xmlns="http://www.w3.org/2000/svg">
<path d="M8.12163 6.49999L12.6607 1.96095C12.8761 1.7459 12.9973 1.45409 12.9975 1.14971C12.9978 0.845325 12.8772 0.553301 12.6621 0.337879C12.4471 0.122456 12.1553 0.00128256 11.8509 0.00101375C11.5465 0.000744942 11.2545 0.121403 11.039 0.336445L6.49999 4.87549L1.96095 0.336445C1.74552 0.121023 1.45335 0 1.1487 0C0.844043 0 0.551868 0.121023 0.336445 0.336445C0.121023 0.551868 0 0.844043 0 1.1487C0 1.45335 0.121023 1.74552 0.336445 1.96095L4.87549 6.49999L0.336445 11.039C0.121023 11.2545 0 11.5466 0 11.8513C0 12.1559 0.121023 12.4481 0.336445 12.6635C0.551868 12.879 0.844043 13 1.1487 13C1.45335 13 1.74552 12.879 1.96095 12.6635L6.49999 8.1245L11.039 12.6635C11.2545 12.879 11.5466 13 11.8513 13C12.1559 13 12.4481 12.879 12.6635 12.6635C12.879 12.4481 13 12.1559 13 11.8513C13 11.5466 12.879 11.2545 12.6635 11.039L8.12163 6.49999Z" fill="#74778B"/>
</svg>
