<svg width="20" height="20" viewBox="0 0 20 20" fill="none" xmlns="http://www.w3.org/2000/svg">
<path fill-rule="evenodd" clip-rule="evenodd" d="M9.99992 14.097C9.6148 14.097 9.30225 13.7845 9.30225 13.3994V6.58354C9.30225 6.19842 9.6148 5.88586 9.99992 5.88586C10.385 5.88586 10.6976 6.19842 10.6976 6.58354V13.3994C10.6976 13.7845 10.385 14.097 9.99992 14.097Z" fill="#1786F9"/>
<path fill-rule="evenodd" clip-rule="evenodd" d="M13.4107 10.6886H6.58928C6.20323 10.6886 5.8916 10.376 5.8916 9.99089C5.8916 9.60577 6.20323 9.29321 6.58928 9.29321H13.4107C13.7958 9.29321 14.1083 9.60577 14.1083 9.99089C14.1083 10.376 13.7958 10.6886 13.4107 10.6886Z" fill="#1786F9"/>
<path fill-rule="evenodd" clip-rule="evenodd" d="M5.64093 1.39535C3.06233 1.39535 1.39535 3.16 1.39535 5.89302V14.107C1.39535 16.84 3.06233 18.6047 5.64093 18.6047H14.3591C16.9386 18.6047 18.6047 16.84 18.6047 14.107V5.89302C18.6047 3.16 16.9386 1.39535 14.3591 1.39535H5.64093ZM14.3591 20H5.64093C2.26698 20 0 17.6316 0 14.107V5.89302C0 2.36837 2.26698 0 5.64093 0H14.3591C17.733 0 20 2.36837 20 5.89302V14.107C20 17.6316 17.733 20 14.3591 20Z" fill="#1786F9"/>
</svg>
