<svg width="18" height="20" viewBox="0 0 18 20" fill="none" xmlns="http://www.w3.org/2000/svg">
<path d="M17.785 1.56712C17.4983 1.26997 17.0334 1.26997 16.7468 1.56712L13.4368 4.99769C12.1429 2.6916 10.8604 0.74587 10.5821 0.328398C10.4449 0.122756 10.2191 0 9.97792 0C9.73673 0 9.51091 0.122756 9.37387 0.328499C8.77491 1.22756 3.5215 9.21035 3.5215 12.6241C3.5215 13.4159 3.6557 14.1757 3.90051 14.8812L0.21503 18.701C-0.0716766 18.9982 -0.0716766 19.48 0.21503 19.7771C0.358334 19.9256 0.546274 20 0.734116 20C0.921958 20 1.1099 19.9257 1.2532 19.7771L4.59521 16.3134C5.75241 18.1207 7.73273 19.3153 9.97802 19.3153C13.539 19.3153 16.4362 16.3137 16.4362 12.6241C16.4362 11.1038 15.394 8.67763 14.1849 6.37428L17.785 2.64311C18.0717 2.34606 18.0717 1.86417 17.785 1.56712ZM4.98978 12.6241C4.98978 10.4111 8.17644 4.95021 9.97802 2.12206C10.6559 3.18557 11.5298 4.62171 12.3562 6.11731L5.08865 13.6497C5.02414 13.3181 4.98978 12.9752 4.98978 12.6241ZM14.9678 12.6241C14.9678 15.4746 12.7294 17.7935 9.97792 17.7935C8.13572 17.7935 6.52472 16.7523 5.66079 15.2088L13.0966 7.50232C14.1434 9.53358 14.9678 11.4984 14.9678 12.6241Z" fill="#141416"/>
</svg>
