<svg width="17" height="17" viewBox="0 0 17 17" fill="none" xmlns="http://www.w3.org/2000/svg">
<path fill-rule="evenodd" clip-rule="evenodd" d="M0 8.5126C0 4.03497 3.57843 0 8.51683 0C13.3447 0 16.9997 3.95836 16.9997 8.48707C16.9997 13.7393 12.7158 16.9997 8.49983 16.9997C7.10586 16.9997 5.55889 16.6251 4.31792 15.893C3.88442 15.6291 3.51893 15.4333 3.05144 15.5866L1.33447 16.0973C0.900983 16.2335 0.50999 15.893 0.637488 15.4334L1.20698 13.5265C1.30047 13.2626 1.28348 12.9817 1.14748 12.7604C0.416492 11.4154 0 9.94272 0 8.5126ZM7.39486 8.5126C7.39486 9.117 7.87935 9.60222 8.48283 9.61073C9.08632 9.61073 9.57081 9.117 9.57081 8.52112C9.57081 7.91672 9.08632 7.4315 8.48283 7.4315C7.88785 7.42299 7.39486 7.91672 7.39486 8.5126ZM11.3133 8.52112C11.3133 9.117 11.7978 9.61073 12.4013 9.61073C13.0047 9.61073 13.4892 9.117 13.4892 8.52112C13.4892 7.91672 13.0047 7.4315 12.4013 7.4315C11.7978 7.4315 11.3133 7.91672 11.3133 8.52112ZM4.56441 9.61073C3.96942 9.61073 3.47643 9.117 3.47643 8.52112C3.47643 7.91672 3.96092 7.4315 4.56441 7.4315C5.1679 7.4315 5.65239 7.91672 5.65239 8.52112C5.65239 9.117 5.1679 9.60222 4.56441 9.61073Z" fill="#8B8FA7"/>
</svg>
