<svg width="12" height="7" viewBox="0 0 12 7" fill="none" xmlns="http://www.w3.org/2000/svg">
<path d="M6.02756 6.88813C5.9143 6.88879 5.80203 6.86708 5.69718 6.82425C5.59233 6.78143 5.49696 6.71833 5.41655 6.63857L0.253088 1.47511C0.0910387 1.31306 0 1.09327 0 0.864098C0 0.634925 0.0910387 0.415138 0.253088 0.253088C0.415138 0.0910387 0.634925 0 0.864098 0C1.09327 0 1.31306 0.0910387 1.47511 0.253088L6.02756 4.81415L10.58 0.261694C10.7446 0.120709 10.9564 0.0470383 11.173 0.0554041C11.3896 0.0637699 11.595 0.153556 11.7483 0.30682C11.9016 0.460084 11.9913 0.665537 11.9997 0.882124C12.0081 1.09871 11.9344 1.31048 11.7934 1.47511L6.62996 6.63857C6.46967 6.79755 6.25332 6.88718 6.02756 6.88813Z" fill="#74778B"/>
</svg>
