<svg width="12" height="13" viewBox="0 0 12 13" fill="none" xmlns="http://www.w3.org/2000/svg">
<path d="M3.47683 2.72093C3.22892 2.72093 3.02334 2.51535 3.02334 2.26744V0.453488C3.02334 0.205581 3.22892 0 3.47683 0C3.72473 0 3.93032 0.205581 3.93032 0.453488V2.26744C3.93032 2.51535 3.72473 2.72093 3.47683 2.72093Z" fill="#1786F9"/>
<path d="M8.31387 2.72093C8.06596 2.72093 7.86038 2.51535 7.86038 2.26744V0.453488C7.86038 0.205581 8.06596 0 8.31387 0C8.56177 0 8.76735 0.205581 8.76735 0.453488V2.26744C8.76735 2.51535 8.56177 2.72093 8.31387 2.72093Z" fill="#1786F9"/>
<path d="M3.77907 8.01162C3.70046 8.01162 3.62186 7.99349 3.5493 7.96326C3.4707 7.93303 3.41023 7.89069 3.34977 7.83627C3.24093 7.72139 3.17442 7.57023 3.17442 7.40697C3.17442 7.32837 3.19256 7.24976 3.22279 7.1772C3.25302 7.10464 3.29535 7.03814 3.34977 6.97768C3.41023 6.92326 3.4707 6.88092 3.5493 6.85069C3.76697 6.75999 4.03907 6.80837 4.20837 6.97768C4.31721 7.09256 4.38372 7.24976 4.38372 7.40697C4.38372 7.44325 4.37767 7.48558 4.37163 7.52791C4.36558 7.56419 4.35349 7.60046 4.33535 7.63674C4.32325 7.67302 4.30512 7.7093 4.28093 7.74558C4.26279 7.77581 4.23256 7.80604 4.20837 7.83627C4.09349 7.94511 3.93628 8.01162 3.77907 8.01162Z" fill="#1786F9"/>
<path d="M5.89543 8.01162C5.81683 8.01162 5.73822 7.99349 5.66566 7.96326C5.58706 7.93302 5.52659 7.89069 5.46613 7.83627C5.35729 7.72138 5.29078 7.57023 5.29078 7.40697C5.29078 7.32837 5.30892 7.24976 5.33915 7.1772C5.36939 7.10464 5.41171 7.03814 5.46613 6.97767C5.52659 6.92326 5.58706 6.88092 5.66566 6.85068C5.88334 6.75394 6.15543 6.80837 6.32473 6.97767C6.43357 7.09256 6.50008 7.24976 6.50008 7.40697C6.50008 7.44325 6.49404 7.48558 6.48799 7.52791C6.48194 7.56419 6.46985 7.60046 6.45171 7.63674C6.43962 7.67302 6.42148 7.70929 6.39729 7.74557C6.37915 7.77581 6.34892 7.80604 6.32473 7.83627C6.20985 7.9451 6.05264 8.01162 5.89543 8.01162Z" fill="#1786F9"/>
<path d="M8.01154 8.01162C7.93294 8.01162 7.85433 7.99349 7.78177 7.96326C7.70317 7.93302 7.6427 7.89069 7.58224 7.83627C7.55805 7.80604 7.53387 7.77581 7.50968 7.74557C7.48549 7.70929 7.46736 7.67302 7.45526 7.63674C7.43712 7.60046 7.42503 7.56419 7.41898 7.52791C7.41294 7.48558 7.40689 7.44325 7.40689 7.40697C7.40689 7.24976 7.4734 7.09256 7.58224 6.97767C7.6427 6.92326 7.70317 6.88092 7.78177 6.85068C8.00549 6.75394 8.27154 6.80837 8.44084 6.97767C8.54968 7.09256 8.61619 7.24976 8.61619 7.40697C8.61619 7.44325 8.61014 7.48558 8.6041 7.52791C8.59805 7.56419 8.58596 7.60046 8.56782 7.63674C8.55573 7.67302 8.53759 7.70929 8.5134 7.74557C8.49526 7.77581 8.46503 7.80604 8.44084 7.83627C8.32596 7.9451 8.16875 8.01162 8.01154 8.01162Z" fill="#1786F9"/>
<path d="M3.77907 10.1279C3.70046 10.1279 3.62186 10.1098 3.5493 10.0795C3.47674 10.0493 3.41023 10.007 3.34977 9.95255C3.24093 9.83767 3.17442 9.68046 3.17442 9.52325C3.17442 9.44465 3.19256 9.36604 3.22279 9.29348C3.25302 9.21488 3.29535 9.14838 3.34977 9.09396C3.57349 8.87024 3.98465 8.87024 4.20837 9.09396C4.31721 9.20884 4.38372 9.36604 4.38372 9.52325C4.38372 9.68046 4.31721 9.83767 4.20837 9.95255C4.09349 10.0614 3.93628 10.1279 3.77907 10.1279Z" fill="#1786F9"/>
<path d="M5.89543 10.1279C5.73822 10.1279 5.58101 10.0614 5.46613 9.95255C5.35729 9.83767 5.29078 9.68046 5.29078 9.52325C5.29078 9.44465 5.30892 9.36604 5.33915 9.29348C5.36939 9.21488 5.41171 9.14838 5.46613 9.09396C5.68985 8.87024 6.10101 8.87024 6.32473 9.09396C6.37915 9.14838 6.42148 9.21488 6.45171 9.29348C6.48194 9.36604 6.50008 9.44465 6.50008 9.52325C6.50008 9.68046 6.43357 9.83767 6.32473 9.95255C6.20985 10.0614 6.05264 10.1279 5.89543 10.1279Z" fill="#1786F9"/>
<path d="M8.01154 10.1279C7.85433 10.1279 7.69712 10.0614 7.58224 9.95257C7.52782 9.89815 7.4855 9.83165 7.45526 9.75304C7.42503 9.68048 7.40689 9.60188 7.40689 9.52327C7.40689 9.44467 7.42503 9.36606 7.45526 9.2935C7.4855 9.2149 7.52782 9.14839 7.58224 9.09398C7.72131 8.95491 7.93293 8.88838 8.12642 8.93071C8.16875 8.93676 8.20503 8.94885 8.24131 8.96699C8.27759 8.97908 8.31387 8.99723 8.35015 9.02142C8.38038 9.03956 8.41061 9.06979 8.44084 9.09398C8.54968 9.20886 8.61619 9.36606 8.61619 9.52327C8.61619 9.68048 8.54968 9.83769 8.44084 9.95257C8.32596 10.0614 8.16875 10.1279 8.01154 10.1279Z" fill="#1786F9"/>
<path d="M11.035 5.19392H0.755898C0.507991 5.19392 0.30241 4.98834 0.30241 4.74043C0.30241 4.49253 0.507991 4.28694 0.755898 4.28694H11.035C11.2829 4.28694 11.4885 4.49253 11.4885 4.74043C11.4885 4.98834 11.2829 5.19392 11.035 5.19392Z" fill="#1786F9"/>
<path d="M8.31395 13H3.47674C1.26977 13 0 11.7302 0 9.52325V4.38372C0 2.17674 1.26977 0.906976 3.47674 0.906976H8.31395C10.5209 0.906976 11.7907 2.17674 11.7907 4.38372V9.52325C11.7907 11.7302 10.5209 13 8.31395 13ZM3.47674 1.81395C1.74744 1.81395 0.906976 2.65442 0.906976 4.38372V9.52325C0.906976 11.2526 1.74744 12.093 3.47674 12.093H8.31395C10.0433 12.093 10.8837 11.2526 10.8837 9.52325V4.38372C10.8837 2.65442 10.0433 1.81395 8.31395 1.81395H3.47674Z" fill="#1786F9"/>
</svg>
