<svg width="22" height="22" viewBox="0 0 22 22" fill="none" xmlns="http://www.w3.org/2000/svg">
<path d="M12.6167 21.7442H5.07535C2.27163 21.7442 0 19.4623 0 16.6688V9.17861C0 6.37489 2.28186 4.10327 5.07535 4.10327H12.6167C15.4205 4.10327 17.6921 6.38513 17.6921 9.17861V16.6688C17.6921 19.4623 15.4102 21.7442 12.6167 21.7442ZM5.07535 5.63815C3.12093 5.63815 1.53488 7.2242 1.53488 9.17861V16.6688C1.53488 18.6233 3.12093 20.2093 5.07535 20.2093H12.6167C14.5712 20.2093 16.1572 18.6233 16.1572 16.6688V9.17861C16.1572 7.2242 14.5712 5.63815 12.6167 5.63815H5.07535Z" fill="#141416"/>
<path d="M4.34884 3.32558C3.9293 3.32558 3.5814 2.97767 3.5814 2.55814V0.767442C3.5814 0.347907 3.9293 0 4.34884 0C4.76837 0 5.11628 0.347907 5.11628 0.767442V2.55814C5.11628 2.97767 4.76837 3.32558 4.34884 3.32558Z" fill="#141416"/>
<path d="M8.44186 3.32558C8.02233 3.32558 7.67442 2.97767 7.67442 2.55814V0.767442C7.67442 0.347907 8.02233 0 8.44186 0C8.8614 0 9.2093 0.347907 9.2093 0.767442V2.55814C9.2093 2.97767 8.8614 3.32558 8.44186 3.32558Z" fill="#141416"/>
<path d="M12.5349 3.32558C12.1153 3.32558 11.7674 2.97767 11.7674 2.55814V0.767442C11.7674 0.347907 12.1153 0 12.5349 0C12.9544 0 13.3023 0.347907 13.3023 0.767442V2.55814C13.3023 2.97767 12.9544 3.32558 12.5349 3.32558Z" fill="#141416"/>
<path d="M16.9247 17.0065C16.5052 17.0065 16.1572 16.6586 16.1572 16.239V7.62321C16.1572 7.20367 16.5052 6.85576 16.9247 6.85576C19.7284 6.85576 22 9.13762 22 11.9311C22 14.7246 19.7182 17.0065 16.9247 17.0065ZM17.6921 8.47251V15.3897C19.2782 15.0418 20.4652 13.6195 20.4652 11.9311C20.4652 10.2427 19.2782 8.82042 17.6921 8.47251Z" fill="#141416"/>
<path d="M16.6381 11.5116H0.767442C0.347907 11.5116 0 11.1637 0 10.7442C0 10.3247 0.347907 9.97674 0.767442 9.97674H16.6381C17.0577 9.97674 17.4056 10.3247 17.4056 10.7442C17.4056 11.1637 17.0577 11.5116 16.6381 11.5116Z" fill="#141416"/>
</svg>
