<svg width="18" height="18" viewBox="0 0 18 18" fill="none" xmlns="http://www.w3.org/2000/svg">
<path fill-rule="evenodd" clip-rule="evenodd" d="M17.3081 18H10.6132C10.231 18 9.9209 17.6807 9.9209 17.2872C9.9209 16.8937 10.231 16.5744 10.6132 16.5744H17.3081C17.6902 16.5744 18.0004 16.8937 18.0004 17.2872C18.0004 17.6807 17.6902 18 17.3081 18Z" fill="#1786F9"/>
<mask id="mask0_0_341" style="mask-type:alpha" maskUnits="userSpaceOnUse" x="0" y="0" width="16" height="18">
<path fill-rule="evenodd" clip-rule="evenodd" d="M0 0H15.8586V18H0V0Z" fill="white"/>
</mask>
<g mask="url(#mask0_0_341)">
<path fill-rule="evenodd" clip-rule="evenodd" d="M10.2554 1.91662L1.56483 13.1075C1.40699 13.3109 1.34883 13.5732 1.40699 13.825L2.03559 16.5669L4.84075 16.5308C5.10751 16.528 5.35397 16.4054 5.51735 16.1963C8.48681 12.3709 14.1479 5.07763 14.3085 4.86379C14.4599 4.61099 14.519 4.25364 14.4396 3.9096C14.3584 3.557 14.1451 3.25763 13.8378 3.0666C13.7722 3.02003 12.2169 1.77691 12.1689 1.73795C11.5837 1.25515 10.7298 1.33878 10.2554 1.91662ZM1.48914 18.0001C1.16884 18.0001 0.890078 17.7739 0.81531 17.4517L0.0593287 14.1529C-0.0966675 13.4696 0.0584056 12.7644 0.483934 12.217L9.17911 1.01943C9.1828 1.01563 9.18557 1.01088 9.18926 1.00708C10.1428 -0.166658 11.867 -0.33963 13.0301 0.621217C13.0762 0.658282 14.6205 1.89379 14.6205 1.89379C15.1817 2.23783 15.6202 2.85274 15.7863 3.58074C15.9516 4.30114 15.8316 5.04434 15.4466 5.67255C15.418 5.71912 15.3931 5.75904 6.59825 17.0877C6.17456 17.6313 5.5395 17.9478 4.85737 17.9564L1.49837 18.0001H1.48914Z" fill="#1786F9"/>
</g>
<path fill-rule="evenodd" clip-rule="evenodd" d="M13.129 8.25387C12.9813 8.25387 12.8336 8.2054 12.7072 8.10656L7.67469 4.12631C7.37193 3.88682 7.3147 3.44013 7.54731 3.1265C7.78084 2.81477 8.21468 2.7568 8.51836 2.9963L13.5518 6.97559C13.8545 7.21509 13.9118 7.66272 13.6782 7.9754C13.5425 8.15788 13.3367 8.25387 13.129 8.25387Z" fill="#1786F9"/>
</svg>
