<svg width="12" height="7" viewBox="0 0 12 7" fill="none" xmlns="http://www.w3.org/2000/svg">
<path d="M5.97244 2.85607e-05C6.0857 -0.000626366 6.19797 0.0210817 6.30282 0.063908C6.40767 0.106734 6.50304 0.169836 6.58345 0.249595L11.7469 5.41306C11.909 5.57511 12 5.79489 12 6.02406C12 6.25324 11.909 6.47302 11.7469 6.63507C11.5849 6.79712 11.3651 6.88816 11.1359 6.88816C10.9067 6.88816 10.6869 6.79712 10.5249 6.63507L5.97244 2.07402L1.41999 6.62647C1.25536 6.76745 1.0436 6.84112 0.827009 6.83276C0.610422 6.82439 0.404968 6.73461 0.251703 6.58134C0.0984399 6.42808 0.00865488 6.22263 0.000289546 6.00604C-0.00807677 5.78945 0.0655931 5.57769 0.206578 5.41306L5.37004 0.249595C5.53033 0.0906088 5.74668 0.000978943 5.97244 2.85607e-05Z" fill="#74778B"/>
</svg>
