<svg width="12" height="13" viewBox="0 0 12 13" fill="none" xmlns="http://www.w3.org/2000/svg">
<path d="M9.12178 9.12187L6.60166 11.642C6.37892 11.8645 6.07696 11.9895 5.76212 11.9895C5.44728 11.9895 5.14531 11.8645 4.92257 11.642L2.40186 9.12187C1.73737 8.45734 1.28485 7.61069 1.10153 6.68898C0.918204 5.76727 1.01232 4.8119 1.37196 3.94368C1.7316 3.07545 2.34062 2.33337 3.12201 1.81127C3.9034 1.28917 4.82206 1.01051 5.76182 1.01051C6.70159 1.01051 7.62024 1.28917 8.40163 1.81127C9.18302 2.33337 9.79204 3.07545 10.1517 3.94368C10.5113 4.8119 10.6054 5.76727 10.4221 6.68898C10.2388 7.61069 9.78628 8.45734 9.12178 9.12187Z" fill="#1786F9" stroke="#1786F9" stroke-width="1.98491" stroke-linecap="round" stroke-linejoin="round"/>
<path d="M5.76116 7.54342C6.74524 7.54342 7.543 6.74566 7.543 5.76158C7.543 4.77749 6.74524 3.97973 5.76116 3.97973C4.77707 3.97973 3.97932 4.77749 3.97932 5.76158C3.97932 6.74566 4.77707 7.54342 5.76116 7.54342Z" fill="#EEEFF2"/>
</svg>
