<svg width="13" height="13" viewBox="0 0 13 13" fill="none" xmlns="http://www.w3.org/2000/svg">
<path fill-rule="evenodd" clip-rule="evenodd" d="M2.88901 7.94413L0.271783 5.77755C-0.222197 5.38251 -0.00553858 4.5881 0.621325 4.49855L4.3334 4.33316L5.91861 0.35893C6.02911 0.138661 6.25371 0 6.49998 0C6.74624 0 6.97085 0.139383 7.08134 0.35893L8.66655 4.33316L12.3786 4.49855C13.0055 4.5881 13.2221 5.38251 12.7282 5.77755L10.1109 7.94413L10.8252 12.174C10.9075 12.7511 10.3081 13.1829 9.7874 12.9222L6.49998 10.8329L3.21255 12.9215C2.69113 13.1822 2.09243 12.7503 2.17476 12.1733L2.88901 7.94413Z" fill="#EEEFF2"/>
</svg>
