<svg width="19" height="19" viewBox="0 0 19 19" fill="none" xmlns="http://www.w3.org/2000/svg">
<path d="M9.49992 0C4.26546 0 0 4.26546 0 9.49992C0 14.7344 4.26546 18.9998 9.49992 18.9998C14.7344 18.9998 18.9998 14.7344 18.9998 9.49992C18.9998 4.26546 14.7344 0 9.49992 0ZM13.2999 10.2124H10.2124V13.2999C10.2124 13.6894 9.88941 14.0124 9.49992 14.0124C9.11042 14.0124 8.78742 13.6894 8.78742 13.2999V10.2124H5.69995C5.31045 10.2124 4.98746 9.88941 4.98746 9.49992C4.98746 9.11042 5.31045 8.78742 5.69995 8.78742H8.78742V5.69995C8.78742 5.31045 9.11042 4.98746 9.49992 4.98746C9.88941 4.98746 10.2124 5.31045 10.2124 5.69995V8.78742H13.2999C13.6894 8.78742 14.0124 9.11042 14.0124 9.49992C14.0124 9.88941 13.6894 10.2124 13.2999 10.2124Z" fill="#74778B"/>
</svg>
