<svg width="15" height="17" viewBox="0 0 15 17" fill="none" xmlns="http://www.w3.org/2000/svg">
<path fill-rule="evenodd" clip-rule="evenodd" d="M10.5004 12.5345H4.53828C4.19641 12.5345 3.91895 12.2532 3.91895 11.9066C3.91895 11.5601 4.19641 11.2788 4.53828 11.2788H10.5004C10.8423 11.2788 11.1197 11.5601 11.1197 11.9066C11.1197 12.2532 10.8423 12.5345 10.5004 12.5345Z" fill="#1786F9"/>
<path fill-rule="evenodd" clip-rule="evenodd" d="M10.5004 9.02989H4.53828C4.19641 9.02989 3.91895 8.74863 3.91895 8.40206C3.91895 8.0555 4.19641 7.77423 4.53828 7.77423H10.5004C10.8423 7.77423 11.1197 8.0555 11.1197 8.40206C11.1197 8.74863 10.8423 9.02989 10.5004 9.02989Z" fill="#1786F9"/>
<path fill-rule="evenodd" clip-rule="evenodd" d="M6.8133 5.53343H4.53828C4.19641 5.53343 3.91895 5.25217 3.91895 4.9056C3.91895 4.55904 4.19641 4.27777 4.53828 4.27777H6.8133C7.15517 4.27777 7.43263 4.55904 7.43263 4.9056C7.43263 5.25217 7.15517 5.53343 6.8133 5.53343Z" fill="#1786F9"/>
<mask id="mask0_0_206" style="mask-type:alpha" maskUnits="userSpaceOnUse" x="0" y="0" width="15" height="17">
<path fill-rule="evenodd" clip-rule="evenodd" d="M0 0H15V16.6667H0V0Z" fill="white"/>
</mask>
<g mask="url(#mask0_0_206)">
<path fill-rule="evenodd" clip-rule="evenodd" d="M10.66 1.25548L4.31055 1.25883C2.38814 1.27055 1.23866 2.47598 1.23866 4.48421V12.1823C1.23866 14.2039 2.39887 15.411 4.34028 15.411L10.6897 15.4085C12.6121 15.3968 13.7616 14.1896 13.7616 12.1823V4.48421C13.7616 2.46259 12.6022 1.25548 10.66 1.25548ZM4.34111 16.6667C1.74487 16.6667 0 14.8644 0 12.1823V4.48421C0 1.77784 1.69037 0.0190704 4.30643 0.00316533L10.6591 -0.000183105H10.66C13.2562 -0.000183105 15.0002 1.80211 15.0002 4.48421V12.1823C15.0002 14.8878 13.3099 16.6474 10.6938 16.6641L4.34111 16.6667Z" fill="#1786F9"/>
</g>
</svg>
