<svg width="17" height="17" viewBox="0 0 17 17" fill="none" xmlns="http://www.w3.org/2000/svg">
<path d="M4.80188 16.0731C4.77638 16.0731 4.74238 16.0901 4.71688 16.0901C3.06791 15.2742 1.72494 13.9227 0.900451 12.2737C0.900451 12.2482 0.917451 12.2142 0.917451 12.1887C1.95443 12.4947 3.02541 12.7242 4.08789 12.9027C4.27489 13.9737 4.49588 15.0362 4.80188 16.0731Z" fill="#74778B"/>
<path d="M16.0986 12.2822C15.2571 13.9737 13.8546 15.3422 12.1461 16.1666C12.4691 15.0872 12.7411 13.9992 12.9196 12.9027C13.9906 12.7242 15.0446 12.4947 16.0816 12.1887C16.0731 12.2227 16.0986 12.2567 16.0986 12.2822Z" fill="#74778B"/>
<path d="M16.1666 4.85339C15.0956 4.53039 14.0161 4.2669 12.9196 4.0799C12.7411 2.98343 12.4776 1.89545 12.1461 0.832967C13.9056 1.67445 15.3251 3.09392 16.1666 4.85339Z" fill="#74778B"/>
<path d="M4.80214 0.926449C4.49615 1.96343 4.27515 3.01741 4.09665 4.08839C3.00018 4.25838 1.9122 4.53038 0.832718 4.85337C1.6572 3.14491 3.02568 1.74243 4.71714 0.900949C4.74264 0.900949 4.77664 0.926449 4.80214 0.926449Z" fill="#74778B"/>
<path d="M11.4661 3.90142C9.49411 3.68043 7.50515 3.68043 5.53319 3.90142C5.74569 2.73695 6.01768 1.57247 6.40018 0.450491C6.41717 0.382493 6.40868 0.331494 6.41718 0.263495C7.08866 0.101998 7.77715 0 8.49963 0C9.21362 0 9.91061 0.101998 10.5736 0.263495C10.5821 0.331494 10.5821 0.382493 10.5991 0.450491C10.9816 1.58097 11.2536 2.73695 11.4661 3.90142Z" fill="#74778B"/>
<path d="M3.90142 11.4663C2.72845 11.2538 1.57247 10.9818 0.450491 10.5993C0.382493 10.5823 0.331494 10.5908 0.263495 10.5823C0.101998 9.91079 0 9.22231 0 8.49982C0 7.78584 0.101998 7.08885 0.263495 6.42586C0.331494 6.41736 0.382493 6.41736 0.450491 6.40036C1.58097 6.02637 2.72845 5.74588 3.90142 5.53338C3.68893 7.50534 3.68893 9.4943 3.90142 11.4663Z" fill="#74778B"/>
<path d="M16.9998 8.49982C16.9998 9.22231 16.8978 9.91079 16.7363 10.5823C16.6683 10.5908 16.6173 10.5823 16.5493 10.5993C15.4188 10.9733 14.2629 11.2538 13.0984 11.4663C13.3194 9.4943 13.3194 7.50534 13.0984 5.53338C14.2629 5.74588 15.4273 6.01787 16.5493 6.40036C16.6173 6.41736 16.6683 6.42586 16.7363 6.42586C16.8978 7.09735 16.9998 7.78584 16.9998 8.49982Z" fill="#74778B"/>
<path d="M11.4661 13.0983C11.2536 14.2712 10.9816 15.4272 10.5991 16.5492C10.5821 16.6172 10.5821 16.6682 10.5736 16.7362C9.91061 16.8977 9.21362 16.9997 8.49963 16.9997C7.77715 16.9997 7.08866 16.8977 6.41718 16.7362C6.40868 16.6682 6.41717 16.6172 6.40018 16.5492C6.02618 15.4187 5.74569 14.2712 5.53319 13.0983C6.51917 13.2088 7.50515 13.2852 8.49963 13.2852C9.49411 13.2852 10.4886 13.2088 11.4661 13.0983Z" fill="#74778B"/>
<path d="M11.6986 11.6986C9.57271 11.9668 7.42695 11.9668 5.30107 11.6986C5.03285 9.57271 5.03285 7.42695 5.30107 5.30107C7.42695 5.03285 9.57271 5.03285 11.6986 5.30107C11.9668 7.42695 11.9668 9.57271 11.6986 11.6986Z" fill="#74778B"/>
</svg>
