<svg width="17" height="15" viewBox="0 0 17 15" fill="none" xmlns="http://www.w3.org/2000/svg">
<path fill-rule="evenodd" clip-rule="evenodd" d="M6.59673 9.71824C6.43353 9.71824 6.27033 9.65717 6.14623 9.5342C5.51893 8.91765 5.17298 8.09781 5.17298 7.22611C5.17298 5.41912 6.66558 3.94927 8.49988 3.94927C9.38219 3.94927 10.239 4.29979 10.8501 4.91133C11.0966 5.15895 11.0941 5.55548 10.8425 5.79809C10.5917 6.04236 10.1888 6.03818 9.94149 5.79223C9.56834 5.41829 9.04304 5.20412 8.49988 5.20412C7.36853 5.20412 6.44798 6.11096 6.44798 7.22611C6.44798 7.76235 6.66133 8.26763 7.04723 8.64744C7.29628 8.89255 7.29628 9.28908 7.04808 9.5342C6.92313 9.65717 6.75993 9.71824 6.59673 9.71824Z" fill="#74778B"/>
<path fill-rule="evenodd" clip-rule="evenodd" d="M8.98225 10.4494C8.6805 10.4494 8.4119 10.2369 8.3558 9.93407C8.2929 9.59358 8.5224 9.26649 8.8692 9.20458C9.7022 9.05567 10.3618 8.40482 10.5114 7.58415C10.5743 7.24366 10.9058 7.01946 11.2518 7.07802C11.5986 7.13909 11.8289 7.46535 11.7669 7.80667C11.5229 9.13933 10.4502 10.1967 9.097 10.4394C9.05875 10.446 9.01965 10.4494 8.98225 10.4494Z" fill="#74778B"/>
<mask id="mask0_4148_7757" style="mask-type:alpha" maskUnits="userSpaceOnUse" x="0" y="0" width="14" height="13">
<path fill-rule="evenodd" clip-rule="evenodd" d="M0 0.522079H13.6733V12.3161H0V0.522079Z" fill="white"/>
</mask>
<g mask="url(#mask0_4148_7757)">
<path fill-rule="evenodd" clip-rule="evenodd" d="M3.95621 12.3161C3.81851 12.3161 3.67996 12.2718 3.56266 12.1823C2.12531 11.0713 0.910653 9.44251 0.0521506 7.47323C-0.0175496 7.31428 -0.0175496 7.13525 0.0521506 6.97714C0.920003 4.9995 2.14231 3.36233 3.58731 2.24384C6.53342 -0.0508637 10.4553 -0.0583929 13.4312 2.26057C13.7074 2.47557 13.7542 2.87043 13.5357 3.14232C13.3164 3.41253 12.9169 3.46021 12.6398 3.24438C10.1187 1.28012 6.87087 1.28681 4.37696 3.22932C3.15636 4.17464 2.10831 5.55163 1.3348 7.22644C2.10066 8.89121 3.13936 10.2598 4.35061 11.1951C4.62771 11.4093 4.67531 11.8041 4.45771 12.076C4.33191 12.2333 4.14491 12.3161 3.95621 12.3161Z" fill="#74778B"/>
</g>
<mask id="mask1_4148_7757" style="mask-type:alpha" maskUnits="userSpaceOnUse" x="5" y="3" width="12" height="11">
<path fill-rule="evenodd" clip-rule="evenodd" d="M5.70987 3.96599H17.0001V13.9615H5.70987V3.96599Z" fill="white"/>
</mask>
<g mask="url(#mask1_4148_7757)">
<path fill-rule="evenodd" clip-rule="evenodd" d="M8.50012 13.9615C7.70366 13.9615 6.91146 13.8343 6.14646 13.5842C5.81241 13.4746 5.63136 13.119 5.74271 12.7903C5.85406 12.4607 6.21361 12.2858 6.54936 12.3929C7.18431 12.6012 7.84052 12.7066 8.50012 12.7066C11.4139 12.7066 14.077 10.6637 15.6656 7.22459C15.278 6.38886 14.8267 5.63177 14.3218 4.97088C14.1101 4.69397 14.1662 4.29995 14.4476 4.09164C14.7281 3.88334 15.1284 3.94023 15.3401 4.21629C15.9555 5.02023 16.4961 5.94966 16.9474 6.97529C17.018 7.13424 17.018 7.31494 16.9474 7.47305C15.1658 11.5363 12.0081 13.9615 8.50012 13.9615Z" fill="#74778B"/>
</g>
<mask id="mask2_4148_7757" style="mask-type:alpha" maskUnits="userSpaceOnUse" x="1" y="0" width="15" height="15">
<path fill-rule="evenodd" clip-rule="evenodd" d="M1.15908 0H15.8416V14.45H1.15908V0Z" fill="white"/>
</mask>
<g mask="url(#mask2_4148_7757)">
<path fill-rule="evenodd" clip-rule="evenodd" d="M1.79637 14.45C1.63317 14.45 1.46997 14.389 1.34587 14.266C1.09682 14.0209 1.09682 13.6243 1.34587 13.3792L14.7538 0.183213C15.0029 -0.0619012 15.4058 -0.0619012 15.6548 0.183213C15.9039 0.428328 15.9039 0.825697 15.6548 1.07081L2.24687 14.266C2.12277 14.389 1.95957 14.45 1.79637 14.45Z" fill="#74778B"/>
</g>
</svg>
