<svg width="18" height="15" viewBox="0 0 18 15" fill="none" xmlns="http://www.w3.org/2000/svg">
<path d="M16.6286 2.50286C16.2771 2.31429 15.54 2.11714 14.5371 2.82L13.2771 3.71143C13.1829 1.04571 12.0257 0 9.21428 0H4.07143C1.14 0 0 1.14 0 4.07143V10.9286C0 12.9 1.07143 15 4.07143 15H9.21428C12.0257 15 13.1829 13.9543 13.2771 11.2886L14.5371 12.18C15.0686 12.5571 15.5314 12.6771 15.9 12.6771C16.2171 12.6771 16.4657 12.5829 16.6286 12.4971C16.98 12.3171 17.5714 11.8286 17.5714 10.6029V4.39714C17.5714 3.17143 16.98 2.68286 16.6286 2.50286ZM7.92857 6.96857C7.04571 6.96857 6.31714 6.24857 6.31714 5.35714C6.31714 4.46571 7.04571 3.74571 7.92857 3.74571C8.81143 3.74571 9.54 4.46571 9.54 5.35714C9.54 6.24857 8.81143 6.96857 7.92857 6.96857Z" fill="#141416"/>
</svg>
