<svg width="20" height="18" viewBox="0 0 20 18" fill="none" xmlns="http://www.w3.org/2000/svg">
<path fill-rule="evenodd" clip-rule="evenodd" d="M10.0251 10.5828C9.40277 10.5828 8.78231 10.3788 8.26323 9.97083L4.09112 6.63298C3.79065 6.39298 3.74414 5.95637 3.98507 5.65914C4.22787 5.36283 4.66694 5.31575 4.96647 5.55483L9.13487 8.88898C9.65859 9.30068 10.3963 9.30068 10.9237 8.88529L15.0502 5.55668C15.3498 5.31391 15.7888 5.36006 16.0326 5.65729C16.2754 5.9536 16.2298 6.38929 15.9312 6.63114L11.7972 9.96529C11.2744 10.377 10.6493 10.5828 10.0251 10.5828Z" fill="#74778B"/>
<mask id="mask0_0_102" style="mask-type:alpha" maskUnits="userSpaceOnUse" x="0" y="0" width="20" height="18">
<path fill-rule="evenodd" clip-rule="evenodd" d="M0 0H20V18H0V0Z" fill="white"/>
</mask>
<g mask="url(#mask0_0_102)">
<path fill-rule="evenodd" clip-rule="evenodd" d="M5.43156 16.6154H14.5665C14.5683 16.6135 14.5758 16.6154 14.5814 16.6154C15.6428 16.6154 16.5842 16.2388 17.306 15.5234C18.1442 14.6954 18.6046 13.5055 18.6046 12.1735V5.83385C18.6046 3.25569 16.906 1.38462 14.5665 1.38462H5.43342C3.09388 1.38462 1.39526 3.25569 1.39526 5.83385V12.1735C1.39526 13.5055 1.85666 14.6954 2.69387 15.5234C3.41574 16.2388 4.35807 16.6154 5.41854 16.6154H5.43156ZM5.41572 18C3.98036 18 2.6985 17.4831 1.70872 16.5046C0.606392 15.4135 -0.00012207 13.8757 -0.00012207 12.1735V5.83385C-0.00012207 2.508 2.3357 0 5.43339 0H14.5665C17.6641 0 20 2.508 20 5.83385V12.1735C20 13.8757 19.3935 15.4135 18.2911 16.5046C17.3023 17.4822 16.0195 18 14.5813 18H14.5665H5.43339H5.41572Z" fill="#74778B"/>
</g>
</svg>
