<svg width="17" height="16" viewBox="0 0 17 16" fill="none" xmlns="http://www.w3.org/2000/svg">
<path d="M12.5436 0H4.18121C1.67249 0 0 1.67249 0 4.18121V9.19867C0 11.7074 1.67249 13.3799 4.18121 13.3799V15.1611C4.18121 15.8301 4.92547 16.2315 5.47739 15.8552L9.19867 13.3799H12.5436C15.0524 13.3799 16.7249 11.7074 16.7249 9.19867V4.18121C16.7249 1.67249 15.0524 0 12.5436 0ZM8.36243 10.1771C8.0112 10.1771 7.73524 9.89275 7.73524 9.54989C7.73524 9.20703 8.0112 8.92271 8.36243 8.92271C8.71365 8.92271 8.98961 9.20703 8.98961 9.54989C8.98961 9.89275 8.71365 10.1771 8.36243 10.1771ZM9.41609 6.70667C9.08996 6.92409 8.98961 7.06625 8.98961 7.3004V7.47601C8.98961 7.81887 8.70529 8.10319 8.36243 8.10319C8.01957 8.10319 7.73524 7.81887 7.73524 7.47601V7.3004C7.73524 6.33036 8.44605 5.8537 8.71365 5.66973C9.02306 5.46066 9.12341 5.3185 9.12341 5.10108C9.12341 4.68296 8.78055 4.3401 8.36243 4.3401C7.94431 4.3401 7.60145 4.68296 7.60145 5.10108C7.60145 5.44394 7.31712 5.72826 6.97426 5.72826C6.6314 5.72826 6.34708 5.44394 6.34708 5.10108C6.34708 3.98888 7.25022 3.08574 8.36243 3.08574C9.47463 3.08574 10.3778 3.98888 10.3778 5.10108C10.3778 6.0544 9.67533 6.53105 9.41609 6.70667Z" fill="#8B8FA7"/>
</svg>
