<svg width="22" height="22" viewBox="0 0 22 22" fill="none" xmlns="http://www.w3.org/2000/svg">
<path d="M18.1628 22H3.83721C-2.43963e-07 22 0 19.8716 0 18.1628V17.1395C0 16.1572 0.808372 15.3488 1.7907 15.3488H20.2093C21.1916 15.3488 22 16.1572 22 17.1395V18.1628C22 19.8716 22 22 18.1628 22ZM1.7907 16.8837C1.64744 16.8837 1.53488 16.9963 1.53488 17.1395V18.1628C1.53488 19.8409 1.53488 20.4651 3.83721 20.4651H18.1628C20.4651 20.4651 20.4651 19.8409 20.4651 18.1628V17.1395C20.4651 16.9963 20.3526 16.8837 20.2093 16.8837H1.7907Z" fill="#141416"/>
<path d="M19.9533 16.8837H2.09747C1.67794 16.8837 1.33003 16.5358 1.33003 16.1163V12.0233C1.33003 7.82791 4.30771 4.14419 8.40073 3.27442C9.00445 3.1414 9.63887 3.06977 10.2835 3.06977H11.7672C12.4221 3.06977 13.0565 3.1414 13.6603 3.27442C17.7533 4.15442 20.7207 7.83814 20.7207 12.0233V16.1163C20.7207 16.5358 20.3831 16.8837 19.9533 16.8837ZM2.86492 15.3488H19.1858V12.0233C19.1858 8.55442 16.73 5.50512 13.3328 4.76837C12.8314 4.65581 12.3096 4.60465 11.7672 4.60465H10.2835C9.75143 4.60465 9.22957 4.65581 8.72817 4.76837C5.33096 5.49488 2.86492 8.54419 2.86492 12.0233V15.3488Z" fill="#141416"/>
<path d="M8.56493 4.78884C8.22726 4.78884 7.92028 4.56372 7.82819 4.22605C7.74633 3.9293 7.7054 3.63256 7.7054 3.32558C7.7054 1.49395 9.19935 0 11.031 0C12.8626 0 14.3566 1.49395 14.3566 3.32558C14.3566 3.63256 14.3156 3.9293 14.2338 4.22605C14.1314 4.61488 13.7426 4.86047 13.3333 4.76837C12.8319 4.65581 12.31 4.60465 11.7677 4.60465H10.284C9.75191 4.60465 9.23005 4.65581 8.72865 4.76837C8.67749 4.7786 8.62633 4.78884 8.56493 4.78884ZM10.284 3.06977H11.7677C12.1156 3.06977 12.4738 3.09023 12.8114 3.13116C12.7193 2.2307 11.9519 1.53488 11.031 1.53488C10.11 1.53488 9.35284 2.2307 9.25051 3.13116C9.59842 3.09023 9.93609 3.06977 10.284 3.06977Z" fill="#141416"/>
<path d="M14.1007 10.7442H7.96121C7.54168 10.7442 7.19377 10.3963 7.19377 9.97674C7.19377 9.55721 7.54168 9.2093 7.96121 9.2093H14.1007C14.5203 9.2093 14.8682 9.55721 14.8682 9.97674C14.8682 10.3963 14.5203 10.7442 14.1007 10.7442Z" fill="#141416"/>
</svg>
