<svg width="12" height="12" viewBox="0 0 12 12" fill="none" xmlns="http://www.w3.org/2000/svg">
<path d="M6 0C2.694 0 0 2.694 0 6C0 9.306 2.694 12 6 12C9.306 12 12 9.306 12 6C12 2.694 9.306 0 6 0ZM8.016 7.38C8.19 7.554 8.19 7.842 8.016 8.016C7.926 8.106 7.812 8.148 7.698 8.148C7.584 8.148 7.47 8.106 7.38 8.016L6 6.636L4.62 8.016C4.53 8.106 4.416 8.148 4.302 8.148C4.188 8.148 4.074 8.106 3.984 8.016C3.81 7.842 3.81 7.554 3.984 7.38L5.364 6L3.984 4.62C3.81 4.446 3.81 4.158 3.984 3.984C4.158 3.81 4.446 3.81 4.62 3.984L6 5.364L7.38 3.984C7.554 3.81 7.842 3.81 8.016 3.984C8.19 4.158 8.19 4.446 8.016 4.62L6.636 6L8.016 7.38Z" fill="#EB5A5A"/>
</svg>
