<svg width="16" height="14" viewBox="0 0 16 14" fill="none" xmlns="http://www.w3.org/2000/svg">
<path fill-rule="evenodd" clip-rule="evenodd" d="M12.352 2.5172C12.384 2.57159 12.44 2.61043 12.512 2.61043C14.432 2.61043 16 4.13319 16 5.99778V10.6127C16 12.4772 14.432 14 12.512 14H3.488C1.56 14 0 12.4772 0 10.6127V5.99778C0 4.13319 1.56 2.61043 3.488 2.61043C3.552 2.61043 3.616 2.57936 3.64 2.5172L3.688 2.42397C3.71558 2.36754 3.74389 2.30957 3.77262 2.25073C3.97728 1.83162 4.2037 1.36795 4.344 1.09545C4.712 0.396226 5.336 0.00776915 6.112 0H9.88C10.656 0.00776915 11.288 0.396226 11.656 1.09545C11.782 1.3402 11.974 1.73445 12.159 2.11442C12.1972 2.19279 12.2351 2.27056 12.272 2.34628L12.352 2.5172ZM11.7681 5.50057C11.7681 5.88902 12.0881 6.19979 12.4881 6.19979C12.8881 6.19979 13.2161 5.88902 13.2161 5.50057C13.2161 5.11211 12.8881 4.79357 12.4881 4.79357C12.0881 4.79357 11.7681 5.11211 11.7681 5.50057ZM6.61602 6.70477C6.99202 6.33962 7.48002 6.14539 8.00002 6.14539C8.52002 6.14539 9.00802 6.33962 9.37602 6.697C9.74402 7.05438 9.94402 7.5283 9.94402 8.0333C9.93602 9.07436 9.07202 9.9212 8.00002 9.9212C7.48002 9.9212 6.99202 9.72697 6.62402 9.36959C6.25602 9.01221 6.05602 8.53829 6.05602 8.0333V8.02553C6.04802 7.53607 6.24802 7.06215 6.61602 6.70477ZM10.2161 10.1931C9.6481 10.7447 8.8641 11.0866 8.0001 11.0866C7.1601 11.0866 6.3761 10.7681 5.7761 10.1931C5.1841 9.61045 4.8561 8.84907 4.8561 8.03331C4.8481 7.22532 5.1761 6.46394 5.7681 5.88126C6.3681 5.29857 7.1601 4.98004 8.0001 4.98004C8.8401 4.98004 9.6321 5.29857 10.2241 5.87349C10.8161 6.45617 11.1441 7.22532 11.1441 8.03331C11.1361 8.88015 10.7841 9.64152 10.2161 10.1931Z" fill="#74778B"/>
</svg>
