<svg width="17" height="20" viewBox="0 0 17 20" fill="none" xmlns="http://www.w3.org/2000/svg">
<path fill-rule="evenodd" clip-rule="evenodd" d="M8.50072 6.66664C7.50644 6.66664 6.69763 7.47176 6.69763 8.46253C6.69763 9.45228 7.50644 10.2564 8.50072 10.2564C9.49499 10.2564 10.3038 9.45228 10.3038 8.46253C10.3038 7.47176 9.49499 6.66664 8.50072 6.66664ZM8.50069 11.7948C6.65433 11.7948 5.1521 10.3005 5.1521 8.46253C5.1521 6.62356 6.65433 5.12817 8.50069 5.12817C10.347 5.12817 11.8493 6.62356 11.8493 8.46253C11.8493 10.3005 10.347 11.7948 8.50069 11.7948Z" fill="#74778B"/>
<mask id="mask0_0_197" style="mask-type:alpha" maskUnits="userSpaceOnUse" x="0" y="0" width="17" height="20">
<path fill-rule="evenodd" clip-rule="evenodd" d="M0 0H17V20H0V0Z" fill="white"/>
</mask>
<g mask="url(#mask0_0_197)">
<path fill-rule="evenodd" clip-rule="evenodd" d="M8.49974 1.53846C4.66483 1.53846 1.54498 4.67385 1.54498 8.52615C1.54498 13.4277 7.33958 18.2031 8.49974 18.4574C9.65989 18.2021 15.4545 13.4267 15.4545 8.52615C15.4545 4.67385 12.3346 1.53846 8.49974 1.53846ZM8.49977 20C6.65135 20 -0.000488281 14.3056 -0.000488281 8.52615C-0.000488281 3.82462 3.81278 0 8.49977 0C13.1868 0 17 3.82462 17 8.52615C17 14.3056 10.3482 20 8.49977 20Z" fill="#74778B"/>
</g>
</svg>
