<svg width="21" height="20" viewBox="0 0 21 20" fill="none" xmlns="http://www.w3.org/2000/svg">
<path d="M19.2224 6.30405L12.1604 0.658561C11.07 -0.217815 9.30711 -0.217815 8.22692 0.648371L1.16496 6.30405C0.370111 6.93586 -0.13941 8.2708 0.0338268 9.26946L1.38915 17.381C1.63372 18.8281 3.01962 20 4.48704 20H15.9003C17.3575 20 18.7536 18.8179 18.9982 17.381L20.3535 9.26946C20.5166 8.2708 20.007 6.93586 19.2224 6.30405ZM10.1937 13.5698C8.7874 13.5698 7.64607 12.4285 7.64607 11.0222C7.64607 9.61594 8.7874 8.47461 10.1937 8.47461C11.6 8.47461 12.7413 9.61594 12.7413 11.0222C12.7413 12.4285 11.6 13.5698 10.1937 13.5698Z" fill="#1786F9"/>
</svg>
