<svg width="18" height="17" viewBox="0 0 18 17" fill="none" xmlns="http://www.w3.org/2000/svg">
<path d="M8.99996 16.1581C8.74043 16.1581 8.48927 16.1246 8.27996 16.0492C5.08184 14.9525 0 11.0595 0 5.30788C0 2.37766 2.36929 0 5.28277 0C6.69765 0 8.02043 0.552556 8.99996 1.54046C9.97949 0.552556 11.3023 0 12.7172 0C15.6306 0 17.9999 2.38604 17.9999 5.30788C17.9999 11.0679 12.9181 14.9525 9.71996 16.0492C9.51066 16.1246 9.25949 16.1581 8.99996 16.1581ZM5.28277 1.25581C3.06417 1.25581 1.25581 3.07254 1.25581 5.30788C1.25581 11.026 6.75625 14.2074 8.69019 14.8688C8.84089 14.919 9.1674 14.919 9.3181 14.8688C11.2437 14.2074 16.7525 11.0344 16.7525 5.30788C16.7525 3.07254 14.9441 1.25581 12.7255 1.25581C11.453 1.25581 10.2725 1.85022 9.51066 2.87999C9.27624 3.19813 8.74043 3.19813 8.50601 2.87999C7.72741 1.84185 6.55532 1.25581 5.28277 1.25581Z" fill="#74778B"/>
</svg>
