<svg width="22" height="22" viewBox="0 0 22 22" fill="none" xmlns="http://www.w3.org/2000/svg">
<path d="M16.7319 21.6263H5.27155C3.40924 21.6263 1.71066 20.1937 1.40369 18.3519L0.042769 10.2069C-0.172112 8.9381 0.441839 7.31114 1.45485 6.50278L8.54594 0.823724C9.91709 -0.281379 12.0761 -0.271137 13.4575 0.833967L20.5486 6.50278C21.5514 7.31114 22.1653 8.9381 21.9607 10.2069L20.5998 18.3519C20.2928 20.163 18.5635 21.6263 16.7319 21.6263ZM10.9915 1.55025C10.4492 1.55025 9.90684 1.71394 9.50778 2.03115L2.4167 7.7102C1.83345 8.18089 1.43439 9.22455 1.55718 9.96129L2.9181 18.1063C3.10228 19.1807 4.17668 20.0914 5.27155 20.0914H16.7319C17.8268 20.0914 18.9012 19.1807 19.0853 18.0961L20.4463 9.95111C20.5691 9.21437 20.1598 8.16042 19.5867 7.69996L12.4957 2.03115C12.0864 1.71394 11.544 1.55025 10.9915 1.55025Z" fill="#74778B"/>
<path d="M11.0019 15.1695C9.17027 15.1695 7.67633 13.6756 7.67633 11.844C7.67633 10.0124 9.17027 8.51846 11.0019 8.51846C12.8335 8.51846 14.3274 10.0124 14.3274 11.844C14.3274 13.6756 12.8335 15.1695 11.0019 15.1695ZM11.0019 10.0533C10.0196 10.0533 9.2112 10.8617 9.2112 11.844C9.2112 12.8263 10.0196 13.6347 11.0019 13.6347C11.9842 13.6347 12.7926 12.8263 12.7926 11.844C12.7926 10.8617 11.9842 10.0533 11.0019 10.0533Z" fill="#74778B"/>
</svg>
