<svg width="7" height="12" viewBox="0 0 7 12" fill="none" xmlns="http://www.w3.org/2000/svg">
<path d="M6.88794 5.97262C6.88859 6.08587 6.86688 6.19814 6.82406 6.30299C6.78123 6.40783 6.71813 6.5032 6.63838 6.58361L1.47506 11.7469C1.31302 11.909 1.09324 12 0.864073 12C0.634907 12 0.415126 11.909 0.253081 11.7469C0.091036 11.5849 -2.77526e-08 11.3651 -3.77698e-08 11.1359C-4.7787e-08 10.9068 0.091036 10.687 0.253081 10.5249L4.81401 5.97262L0.261686 1.4203C0.120705 1.25567 0.0470364 1.04391 0.055402 0.827331C0.0637675 0.610751 0.153551 0.405303 0.306811 0.252043C0.460071 0.0987837 0.665518 0.00900126 0.882098 0.000636157C1.09868 -0.00772993 1.31044 0.0659378 1.47506 0.206918L6.63838 5.37023C6.79736 5.53052 6.88698 5.74686 6.88794 5.97262Z" fill="#74778B"/>
</svg>
