<svg width="15" height="17" viewBox="0 0 15 17" fill="none" xmlns="http://www.w3.org/2000/svg">
<path fill-rule="evenodd" clip-rule="evenodd" d="M0 7.07009C0 3.16021 3.2673 0 7.21943 0C11.1827 0 14.45 3.16021 14.45 7.07009C14.45 9.04033 13.7335 10.8695 12.5541 12.4198C11.253 14.13 9.64933 15.62 7.84426 16.7896C7.43113 17.0598 7.05829 17.0802 6.60488 16.7896C4.78952 15.62 3.18587 14.13 1.89592 12.4198C0.715686 10.8695 0 9.04033 0 7.07009ZM4.84009 7.29024C4.84009 8.60005 5.90891 9.63022 7.21943 9.63022C8.5308 9.63022 9.6099 8.60005 9.6099 7.29024C9.6099 5.99062 8.5308 4.91031 7.21943 4.91031C5.90891 4.91031 4.84009 5.99062 4.84009 7.29024Z" fill="#EEEFF2"/>
</svg>
