<svg width="17" height="17" viewBox="0 0 17 17" fill="none" xmlns="http://www.w3.org/2000/svg">
<path d="M12.7716 16.1164L9.81315 14.6372C8.98853 14.2291 8.02788 14.2291 7.20325 14.6372L4.24479 16.1164C1.70289 17.3831 -0.975029 14.6542 0.351178 12.1463L1.04829 10.8371C1.1418 10.6585 1.29483 10.514 1.48185 10.429L12.2275 5.58325C12.6696 5.38772 13.1882 5.56625 13.4092 5.99132L16.6482 12.1463C17.9744 14.6542 15.305 17.3831 12.7716 16.1164Z" fill="#74778B"/>
<path d="M11.5648 4.55459L4.52574 7.72558C3.73512 8.08264 2.93599 7.2325 3.34406 6.46738L5.92846 1.56212C7.02513 -0.520706 10.0006 -0.520706 11.0973 1.56212L12.0069 3.29639C12.2449 3.76396 12.0409 4.34205 11.5648 4.55459Z" fill="#74778B"/>
</svg>
