<svg width="18" height="18" viewBox="0 0 18 18" fill="none" xmlns="http://www.w3.org/2000/svg">
<path d="M17.3718 8.37194H15.6639C15.3625 5.18223 12.8174 2.62879 9.62773 2.33577V0.627896C9.62773 0.284646 9.34309 0 8.99984 0C8.65659 0 8.37194 0.284646 8.37194 0.627896V2.33577C5.18223 2.63716 2.62879 5.18223 2.33577 8.37194H0.627896C0.284646 8.37194 0 8.65659 0 8.99984C0 9.34309 0.284646 9.62773 0.627896 9.62773H2.33577C2.63716 12.8174 5.18223 15.3709 8.37194 15.6639V17.3718C8.37194 17.715 8.65659 17.9997 8.99984 17.9997C9.34309 17.9997 9.62773 17.715 9.62773 17.3718V15.6639C12.8174 15.3625 15.3709 12.8174 15.6639 9.62773H17.3718C17.715 9.62773 17.9997 9.34309 17.9997 8.99984C17.9997 8.65659 17.715 8.37194 17.3718 8.37194ZM8.99984 11.6119C7.55986 11.6119 6.38779 10.4398 6.38779 8.99984C6.38779 7.55986 7.55986 6.38779 8.99984 6.38779C10.4398 6.38779 11.6119 7.55986 11.6119 8.99984C11.6119 10.4398 10.4398 11.6119 8.99984 11.6119Z" fill="#141416"/>
</svg>
