<svg width="9" height="9" viewBox="0 0 9 9" fill="none" xmlns="http://www.w3.org/2000/svg">
<path fill-rule="evenodd" clip-rule="evenodd" d="M3.1882 8.51395L7.58139 2.83272C7.82015 2.52635 7.90504 2.17215 7.82546 1.81149C7.75648 1.48363 7.55486 1.17189 7.25243 0.935392L6.51493 0.349532C5.87293 -0.16108 5.07706 -0.107332 4.62076 0.478529L4.12732 1.11867C4.06365 1.19876 4.07957 1.31701 4.15916 1.38151C4.15916 1.38151 5.40602 2.38123 5.43255 2.40273C5.51744 2.48335 5.58111 2.59085 5.59703 2.71985C5.62356 2.97247 5.44846 3.20896 5.18848 3.24121C5.06645 3.25733 4.94972 3.21971 4.86483 3.14984L3.5543 2.10711C3.49063 2.05928 3.39512 2.06949 3.34207 2.13399L0.227569 6.16514C0.0259492 6.41775 -0.043026 6.74562 0.0259492 7.06274L0.423883 8.78807C0.445106 8.87944 0.524693 8.94394 0.620197 8.94394L2.37111 8.92244C2.68945 8.91707 2.98658 8.77194 3.1882 8.51395ZM5.63984 7.97663H8.49489C8.77344 7.97663 9 8.20613 9 8.48831C9 8.77103 8.77344 9 8.49489 9H5.63984C5.36129 9 5.13473 8.77103 5.13473 8.48831C5.13473 8.20613 5.36129 7.97663 5.63984 7.97663Z" fill="#F9F9FA"/>
</svg>
