<svg width="17" height="17" viewBox="0 0 17 17" fill="none" xmlns="http://www.w3.org/2000/svg">
<path d="M16.0315 5.2576L10.1418 0.549242C9.23245 -0.181658 7.76215 -0.181658 6.86128 0.540743L0.971583 5.2576C0.308673 5.78453 -0.116269 6.89787 0.0282117 7.73076L1.15856 14.4958C1.36253 15.7027 2.51837 16.68 3.7422 16.68H13.2609C14.4762 16.68 15.6406 15.6942 15.8445 14.4958L16.9749 7.73076C17.1109 6.89787 16.6859 5.78453 16.0315 5.2576ZM8.50155 11.3173C7.32871 11.3173 6.37684 10.3654 6.37684 9.19256C6.37684 8.01972 7.32871 7.06785 8.50155 7.06785C9.67439 7.06785 10.6263 8.01972 10.6263 9.19256C10.6263 10.3654 9.67439 11.3173 8.50155 11.3173Z" fill="#141416"/>
</svg>
